<svg xmlns="http://www.w3.org/2000/svg" xmlns:xlink="http://www.w3.org/1999/xlink" width="500" zoomAndPan="magnify" viewBox="0 0 375 374.999991" height="500" preserveAspectRatio="xMidYMid meet" version="1.0"><defs><g/><clipPath id="bf81eeacf2"><path d="M 82.695312 152.820312 L 175 152.820312 L 175 232.230469 L 82.695312 232.230469 Z M 82.695312 152.820312 " clip-rule="nonzero"/></clipPath><clipPath id="02a05aa06a"><path d="M 171.097656 218.886719 L 187.636719 218.886719 L 187.636719 232.230469 L 171.097656 232.230469 Z M 171.097656 218.886719 " clip-rule="nonzero"/></clipPath><clipPath id="d643c4c2fe"><path d="M 199.648438 152.820312 L 291.941406 152.820312 L 291.941406 232.230469 L 199.648438 232.230469 Z M 199.648438 152.820312 " clip-rule="nonzero"/></clipPath><clipPath id="f97c4468e9"><path d="M 187.046875 218.886719 L 203.585938 218.886719 L 203.585938 232.230469 L 187.046875 232.230469 Z M 187.046875 218.886719 " clip-rule="nonzero"/></clipPath><clipPath id="881735808e"><path d="M 208 74.058594 L 227 74.058594 L 227 92 L 208 92 Z M 208 74.058594 " clip-rule="nonzero"/></clipPath><clipPath id="f65142a951"><rect x="0" width="188" y="0" height="21"/></clipPath><clipPath id="d3412fc5bd"><rect x="0" width="324" y="0" height="43"/></clipPath></defs><g clip-path="url(#bf81eeacf2)"><path fill="#19467e" d="M 174.382812 231.460938 C 174.355469 231.453125 174.332031 231.445312 174.316406 231.441406 C 174.328125 231.449219 174.351562 231.457031 174.378906 231.46875 C 174.296875 231.71875 174.214844 231.976562 174.140625 232.230469 C 173.140625 231.933594 172.140625 231.652344 171.136719 231.378906 C 142.6875 223.53125 112.507812 221.964844 82.695312 226.996094 C 88.121094 207.902344 93.542969 188.8125 98.96875 169.722656 C 101.277344 161.589844 107.703125 155.289062 115.863281 153.125 C 116.238281 153.023438 116.613281 152.925781 116.988281 152.828125 C 110.003906 174.109375 103.023438 195.394531 96.039062 216.675781 C 119.441406 213.683594 153.53125 219.058594 172.214844 228.554688 C 173.175781 229.039062 174.09375 229.539062 174.964844 230.046875 C 174.746094 230.503906 174.550781 230.976562 174.382812 231.460938 " fill-opacity="1" fill-rule="nonzero"/></g><path fill="#0979bd" d="M 140.082031 140.015625 C 139.941406 140.046875 139.800781 140.074219 139.660156 140.105469 C 131.40625 141.921875 124.730469 147.984375 122.097656 156.027344 C 116.117188 174.300781 110.476562 191.535156 104.308594 210.382812 C 146.230469 208.417969 169.429688 223.296875 169.429688 223.296875 C 148.308594 204.671875 116.589844 204.75 116.589844 204.75 C 116.589844 204.75 132.265625 161.003906 140.082031 140.015625 " fill-opacity="1" fill-rule="nonzero"/><path fill="#58bceb" d="M 162.34375 129.953125 C 162.292969 129.964844 162.246094 129.976562 162.199219 129.984375 C 153.9375 131.773438 147.269531 137.863281 144.636719 145.90625 C 138.804688 163.714844 133.300781 180.527344 127.289062 198.90625 C 158.804688 203.011719 172.082031 222.085938 172.082031 222.085938 C 165.570312 202.886719 138.761719 195.230469 138.761719 195.230469 C 138.761719 195.230469 154.683594 150.519531 162.34375 129.953125 " fill-opacity="1" fill-rule="nonzero"/><g clip-path="url(#02a05aa06a)"><path fill="#19467e" d="M 187.496094 218.988281 C 180.785156 218.988281 174.976562 222.890625 172.214844 228.554688 C 171.953125 229.089844 171.71875 229.640625 171.511719 230.210938 C 171.375 230.59375 171.25 230.984375 171.136719 231.378906 C 172.140625 231.652344 173.140625 231.933594 174.140625 232.230469 C 174.214844 231.976562 174.296875 231.71875 174.378906 231.46875 L 174.382812 231.460938 C 174.550781 230.976562 174.746094 230.503906 174.964844 230.046875 C 177.191406 225.355469 181.96875 222.113281 187.496094 222.113281 L 187.496094 218.988281 " fill-opacity="1" fill-rule="nonzero"/></g><path fill="#58bceb" d="M 206.476562 132.597656 C 217 121.0625 221.371094 107.9375 218.941406 89.800781 C 225.484375 106.824219 225.753906 125.648438 213.5 140.742188 C 192.675781 166.386719 154.742188 170.078125 153.136719 199.964844 C 147.847656 164.324219 184.28125 156.929688 206.476562 132.597656 " fill-opacity="1" fill-rule="nonzero"/><path fill="#f29e23" d="M 175.007812 121.847656 C 175.007812 128.996094 179.949219 134.789062 186.042969 134.789062 C 192.140625 134.789062 197.082031 128.996094 197.082031 121.847656 C 197.082031 114.703125 192.140625 108.910156 186.042969 108.910156 C 179.949219 108.910156 175.007812 114.703125 175.007812 121.847656 " fill-opacity="1" fill-rule="nonzero"/><g clip-path="url(#d643c4c2fe)"><path fill="#19467e" d="M 200.253906 231.460938 C 200.285156 231.453125 200.308594 231.445312 200.320312 231.441406 C 200.3125 231.449219 200.289062 231.457031 200.257812 231.46875 C 200.34375 231.71875 200.425781 231.976562 200.5 232.230469 C 201.5 231.933594 202.496094 231.652344 203.503906 231.378906 C 231.953125 223.53125 262.128906 221.964844 291.941406 226.996094 C 286.519531 207.902344 281.09375 188.8125 275.671875 169.722656 C 273.363281 161.589844 266.9375 155.289062 258.777344 153.125 C 258.402344 153.023438 258.027344 152.925781 257.652344 152.828125 C 264.632812 174.109375 271.617188 195.394531 278.597656 216.675781 C 255.195312 213.683594 221.109375 219.058594 202.421875 228.554688 C 201.464844 229.039062 200.546875 229.539062 199.675781 230.046875 C 199.894531 230.503906 200.089844 230.976562 200.253906 231.460938 " fill-opacity="1" fill-rule="nonzero"/></g><path fill="#0979bd" d="M 234.554688 140.015625 C 234.699219 140.046875 234.839844 140.074219 234.980469 140.105469 C 243.234375 141.921875 249.90625 147.984375 252.539062 156.027344 C 258.519531 174.300781 264.164062 191.535156 270.332031 210.382812 C 228.40625 208.417969 205.207031 223.296875 205.207031 223.296875 C 226.328125 204.671875 258.050781 204.75 258.050781 204.75 C 258.050781 204.75 242.375 161.003906 234.554688 140.015625 " fill-opacity="1" fill-rule="nonzero"/><path fill="#58bceb" d="M 202.40625 222.085938 C 202.40625 222.085938 215.683594 203.011719 247.203125 198.90625 C 241.265625 180.769531 235.824219 164.15625 230.082031 146.605469 C 227.78125 150.078125 224.921875 153.207031 221.617188 155.894531 C 228.621094 175.277344 235.730469 195.230469 235.730469 195.230469 C 235.730469 195.230469 208.921875 202.882812 202.40625 222.085938 " fill-opacity="1" fill-rule="nonzero"/><g clip-path="url(#f97c4468e9)"><path fill="#19467e" d="M 187.140625 222.113281 C 192.667969 222.113281 197.445312 225.355469 199.675781 230.046875 C 199.894531 230.503906 200.089844 230.976562 200.253906 231.460938 L 200.257812 231.46875 C 200.34375 231.71875 200.425781 231.976562 200.5 232.230469 C 201.5 231.933594 202.496094 231.652344 203.503906 231.378906 C 203.386719 230.984375 203.261719 230.59375 203.125 230.210938 C 202.921875 229.640625 202.683594 229.089844 202.421875 228.554688 C 199.664062 222.890625 193.855469 218.988281 187.140625 218.988281 L 187.140625 222.113281 " fill-opacity="1" fill-rule="nonzero"/></g><path fill="#f29e23" d="M 213.144531 159.929688 C 223.042969 154.285156 230.613281 145.46875 233.40625 134.566406 C 234.183594 148.953125 227.046875 161.601562 215.566406 169.398438 C 196.167969 182.566406 167.957031 182.605469 157.179688 201.277344 C 161.605469 177.046875 191.871094 172.066406 213.144531 159.929688 " fill-opacity="1" fill-rule="nonzero"/><g clip-path="url(#881735808e)"><path fill="#a6a8ab" d="M 208.726562 77.074219 C 215.074219 82.648438 215.335938 83.925781 211.667969 91.542969 C 217.230469 85.1875 218.511719 84.925781 226.113281 88.601562 C 219.765625 83.023438 219.503906 81.746094 223.175781 74.128906 C 217.609375 80.488281 216.332031 80.746094 208.726562 77.074219 " fill-opacity="1" fill-rule="nonzero"/></g><path fill="#a6a8ab" d="M 235.042969 105.011719 C 237.230469 105.3125 237.472656 105.554688 237.769531 107.746094 C 238.066406 105.554688 238.308594 105.3125 240.496094 105.015625 C 238.308594 104.71875 238.066406 104.476562 237.769531 102.285156 C 237.472656 104.476562 237.230469 104.714844 235.042969 105.011719 " fill-opacity="1" fill-rule="nonzero"/><path fill="#a6a8ab" d="M 196.863281 103.355469 C 201.308594 103.964844 201.800781 104.457031 202.402344 108.910156 C 203.007812 104.457031 203.5 103.964844 207.945312 103.363281 C 203.5 102.753906 203.011719 102.261719 202.410156 97.8125 C 201.800781 102.261719 201.3125 102.753906 196.863281 103.355469 " fill-opacity="1" fill-rule="nonzero"/><g transform="matrix(1, 0, 0, 1, 94, 280)"><g clip-path="url(#f65142a951)"><g fill="#0979bd" fill-opacity="1"><g transform="translate(0.567421, 15.688138)"><g><path d="M 7.765625 -3.046875 C 7.765625 -2.472656 7.648438 -1.984375 7.421875 -1.578125 C 7.191406 -1.171875 6.894531 -0.835938 6.53125 -0.578125 C 6.164062 -0.328125 5.753906 -0.144531 5.296875 -0.03125 C 4.847656 0.0820312 4.398438 0.140625 3.953125 0.140625 C 3.492188 0.140625 3.097656 0.09375 2.765625 0 C 2.429688 -0.09375 2.125 -0.179688 1.84375 -0.265625 C 1.65625 -0.316406 1.488281 -0.363281 1.34375 -0.40625 C 1.195312 -0.445312 1.046875 -0.46875 0.890625 -0.46875 L 0.890625 -2.4375 L 1.0625 -2.4375 C 1.0625 -2 1.175781 -1.648438 1.40625 -1.390625 C 1.632812 -1.128906 1.894531 -0.929688 2.1875 -0.796875 C 2.488281 -0.660156 2.785156 -0.570312 3.078125 -0.53125 C 3.378906 -0.488281 3.601562 -0.46875 3.75 -0.46875 C 4.238281 -0.46875 4.660156 -0.535156 5.015625 -0.671875 C 5.367188 -0.816406 5.660156 -1.007812 5.890625 -1.25 C 6.128906 -1.488281 6.300781 -1.75 6.40625 -2.03125 C 6.519531 -2.320312 6.578125 -2.617188 6.578125 -2.921875 C 6.578125 -3.296875 6.492188 -3.613281 6.328125 -3.875 C 6.171875 -4.132812 5.960938 -4.359375 5.703125 -4.546875 C 5.441406 -4.742188 5.144531 -4.910156 4.8125 -5.046875 C 4.476562 -5.191406 4.140625 -5.332031 3.796875 -5.46875 C 3.398438 -5.613281 3.007812 -5.765625 2.625 -5.921875 C 2.25 -6.085938 1.910156 -6.285156 1.609375 -6.515625 C 1.316406 -6.753906 1.078125 -7.035156 0.890625 -7.359375 C 0.710938 -7.691406 0.625 -8.101562 0.625 -8.59375 C 0.625 -9.09375 0.71875 -9.53125 0.90625 -9.90625 C 1.101562 -10.28125 1.363281 -10.585938 1.6875 -10.828125 C 2.019531 -11.066406 2.394531 -11.25 2.8125 -11.375 C 3.238281 -11.5 3.671875 -11.5625 4.109375 -11.5625 C 4.398438 -11.5625 4.675781 -11.539062 4.9375 -11.5 C 5.207031 -11.457031 5.460938 -11.40625 5.703125 -11.34375 C 5.898438 -11.300781 6.09375 -11.265625 6.28125 -11.234375 C 6.46875 -11.203125 6.644531 -11.1875 6.8125 -11.1875 L 6.8125 -9.421875 L 6.640625 -9.421875 C 6.617188 -10.015625 6.382812 -10.414062 5.9375 -10.625 C 5.488281 -10.84375 4.867188 -10.953125 4.078125 -10.953125 C 3.609375 -10.953125 3.226562 -10.875 2.9375 -10.71875 C 2.644531 -10.5625 2.410156 -10.367188 2.234375 -10.140625 C 2.066406 -9.921875 1.953125 -9.679688 1.890625 -9.421875 C 1.828125 -9.160156 1.796875 -8.9375 1.796875 -8.75 C 1.796875 -8.425781 1.863281 -8.148438 2 -7.921875 C 2.144531 -7.691406 2.335938 -7.488281 2.578125 -7.3125 C 2.828125 -7.144531 3.109375 -6.988281 3.421875 -6.84375 C 3.742188 -6.707031 4.078125 -6.578125 4.421875 -6.453125 C 4.804688 -6.304688 5.195312 -6.144531 5.59375 -5.96875 C 6 -5.789062 6.359375 -5.578125 6.671875 -5.328125 C 6.992188 -5.078125 7.253906 -4.765625 7.453125 -4.390625 C 7.660156 -4.023438 7.765625 -3.578125 7.765625 -3.046875 Z M 7.765625 -3.046875 "/></g></g></g><g fill="#0979bd" fill-opacity="1"><g transform="translate(9.021482, 15.688138)"><g><path d="M 11.8125 -1.125 C 11.8125 -1.03125 11.820312 -0.925781 11.84375 -0.8125 C 11.875 -0.707031 11.910156 -0.609375 11.953125 -0.515625 C 11.992188 -0.421875 12.046875 -0.335938 12.109375 -0.265625 C 12.179688 -0.203125 12.257812 -0.171875 12.34375 -0.171875 L 12.34375 0 L 10.109375 0 L 10.109375 -0.171875 C 10.203125 -0.171875 10.28125 -0.203125 10.34375 -0.265625 C 10.414062 -0.335938 10.476562 -0.421875 10.53125 -0.515625 C 10.582031 -0.609375 10.617188 -0.707031 10.640625 -0.8125 C 10.660156 -0.925781 10.671875 -1.03125 10.671875 -1.125 L 10.671875 -4.84375 C 10.671875 -5.113281 10.632812 -5.367188 10.5625 -5.609375 C 10.488281 -5.847656 10.375 -6.054688 10.21875 -6.234375 C 10.070312 -6.410156 9.890625 -6.550781 9.671875 -6.65625 C 9.453125 -6.769531 9.207031 -6.828125 8.9375 -6.828125 C 8.625 -6.828125 8.351562 -6.753906 8.125 -6.609375 C 7.90625 -6.472656 7.722656 -6.300781 7.578125 -6.09375 C 7.429688 -5.882812 7.320312 -5.671875 7.25 -5.453125 C 7.1875 -5.242188 7.15625 -5.070312 7.15625 -4.9375 L 7.15625 -1.125 C 7.15625 -1.03125 7.164062 -0.925781 7.1875 -0.8125 C 7.21875 -0.707031 7.257812 -0.609375 7.3125 -0.515625 C 7.363281 -0.421875 7.421875 -0.335938 7.484375 -0.265625 C 7.546875 -0.203125 7.617188 -0.171875 7.703125 -0.171875 L 7.703125 0 L 5.484375 0 L 5.484375 -0.171875 C 5.566406 -0.171875 5.640625 -0.203125 5.703125 -0.265625 C 5.773438 -0.335938 5.835938 -0.421875 5.890625 -0.515625 C 5.941406 -0.609375 5.976562 -0.707031 6 -0.8125 C 6.019531 -0.925781 6.03125 -1.03125 6.03125 -1.125 L 6.03125 -4.953125 C 6.03125 -5.222656 5.984375 -5.476562 5.890625 -5.71875 C 5.796875 -5.957031 5.664062 -6.15625 5.5 -6.3125 C 5.332031 -6.476562 5.140625 -6.601562 4.921875 -6.6875 C 4.710938 -6.78125 4.5 -6.828125 4.28125 -6.828125 C 3.976562 -6.828125 3.710938 -6.769531 3.484375 -6.65625 C 3.265625 -6.539062 3.082031 -6.394531 2.9375 -6.21875 C 2.789062 -6.050781 2.679688 -5.863281 2.609375 -5.65625 C 2.535156 -5.457031 2.5 -5.269531 2.5 -5.09375 L 2.5 -1.125 C 2.5 -1.03125 2.507812 -0.925781 2.53125 -0.8125 C 2.550781 -0.707031 2.585938 -0.609375 2.640625 -0.515625 C 2.691406 -0.421875 2.75 -0.335938 2.8125 -0.265625 C 2.882812 -0.203125 2.960938 -0.171875 3.046875 -0.171875 L 3.046875 0 L 0.828125 0 L 0.828125 -0.171875 C 0.910156 -0.171875 0.984375 -0.203125 1.046875 -0.265625 C 1.117188 -0.335938 1.179688 -0.421875 1.234375 -0.515625 C 1.285156 -0.609375 1.320312 -0.707031 1.34375 -0.8125 C 1.363281 -0.925781 1.375 -1.03125 1.375 -1.125 L 1.375 -5.734375 C 1.375 -5.816406 1.367188 -5.914062 1.359375 -6.03125 C 1.347656 -6.144531 1.320312 -6.253906 1.28125 -6.359375 C 1.25 -6.460938 1.191406 -6.550781 1.109375 -6.625 C 1.035156 -6.695312 0.929688 -6.734375 0.796875 -6.734375 L 0.796875 -6.875 L 2.5 -7.453125 L 2.5 -6.578125 C 2.675781 -6.765625 2.914062 -6.953125 3.21875 -7.140625 C 3.519531 -7.328125 3.921875 -7.421875 4.421875 -7.421875 C 4.742188 -7.421875 5.03125 -7.375 5.28125 -7.28125 C 5.53125 -7.1875 5.75 -7.066406 5.9375 -6.921875 C 6.132812 -6.773438 6.300781 -6.609375 6.4375 -6.421875 C 6.570312 -6.242188 6.6875 -6.070312 6.78125 -5.90625 C 6.875 -6.070312 6.984375 -6.242188 7.109375 -6.421875 C 7.234375 -6.597656 7.382812 -6.757812 7.5625 -6.90625 C 7.738281 -7.0625 7.953125 -7.1875 8.203125 -7.28125 C 8.453125 -7.375 8.742188 -7.421875 9.078125 -7.421875 C 9.722656 -7.421875 10.226562 -7.304688 10.59375 -7.078125 C 10.957031 -6.847656 11.226562 -6.570312 11.40625 -6.25 C 11.582031 -5.925781 11.691406 -5.585938 11.734375 -5.234375 C 11.785156 -4.878906 11.8125 -4.582031 11.8125 -4.34375 Z M 11.8125 -1.125 "/></g></g></g><g fill="#0979bd" fill-opacity="1"><g transform="translate(22.35819, 15.688138)"><g><path d="M 5.328125 0 L 5.328125 -0.875 L 5.25 -0.796875 C 4.957031 -0.503906 4.625 -0.273438 4.25 -0.109375 C 3.875 0.046875 3.421875 0.125 2.890625 0.125 C 2.492188 0.125 2.148438 0.078125 1.859375 -0.015625 C 1.578125 -0.109375 1.34375 -0.238281 1.15625 -0.40625 C 0.96875 -0.570312 0.832031 -0.765625 0.75 -0.984375 C 0.664062 -1.203125 0.625 -1.429688 0.625 -1.671875 C 0.625 -2.066406 0.726562 -2.410156 0.9375 -2.703125 C 1.15625 -3.003906 1.460938 -3.269531 1.859375 -3.5 C 2.265625 -3.726562 2.753906 -3.9375 3.328125 -4.125 C 3.910156 -4.320312 4.578125 -4.507812 5.328125 -4.6875 C 5.304688 -5.132812 5.210938 -5.492188 5.046875 -5.765625 C 4.890625 -6.046875 4.703125 -6.265625 4.484375 -6.421875 C 4.265625 -6.578125 4.035156 -6.679688 3.796875 -6.734375 C 3.554688 -6.785156 3.347656 -6.8125 3.171875 -6.8125 C 2.867188 -6.8125 2.601562 -6.765625 2.375 -6.671875 C 2.15625 -6.578125 1.960938 -6.457031 1.796875 -6.3125 C 1.628906 -6.175781 1.488281 -6.023438 1.375 -5.859375 C 1.257812 -5.691406 1.171875 -5.53125 1.109375 -5.375 L 0.953125 -5.375 L 0.953125 -6.640625 C 1.046875 -6.648438 1.128906 -6.675781 1.203125 -6.71875 C 1.285156 -6.769531 1.382812 -6.816406 1.5 -6.859375 C 1.675781 -6.929688 1.910156 -7.03125 2.203125 -7.15625 C 2.503906 -7.289062 2.925781 -7.359375 3.46875 -7.359375 C 4.101562 -7.359375 4.613281 -7.273438 5 -7.109375 C 5.394531 -6.953125 5.695312 -6.742188 5.90625 -6.484375 C 6.125 -6.222656 6.265625 -5.921875 6.328125 -5.578125 C 6.398438 -5.242188 6.4375 -4.894531 6.4375 -4.53125 L 6.4375 -1.125 C 6.4375 -0.894531 6.488281 -0.675781 6.59375 -0.46875 C 6.695312 -0.269531 6.832031 -0.171875 7 -0.171875 L 7 0 Z M 5.328125 -1.640625 L 5.328125 -4.109375 L 5.15625 -4.078125 C 4.882812 -4.003906 4.546875 -3.910156 4.140625 -3.796875 C 3.742188 -3.679688 3.367188 -3.53125 3.015625 -3.34375 C 2.660156 -3.164062 2.351562 -2.945312 2.09375 -2.6875 C 1.84375 -2.4375 1.71875 -2.144531 1.71875 -1.8125 C 1.71875 -1.445312 1.867188 -1.140625 2.171875 -0.890625 C 2.472656 -0.648438 2.863281 -0.53125 3.34375 -0.53125 C 3.726562 -0.53125 4.0625 -0.613281 4.34375 -0.78125 C 4.632812 -0.945312 4.898438 -1.164062 5.140625 -1.4375 Z M 5.328125 -1.640625 "/></g></g></g><g fill="#0979bd" fill-opacity="1"><g transform="translate(30.242889, 15.688138)"><g><path d="M 4.984375 -5.984375 C 4.847656 -6.210938 4.703125 -6.351562 4.546875 -6.40625 C 4.398438 -6.46875 4.226562 -6.5 4.03125 -6.5 C 3.90625 -6.5 3.769531 -6.46875 3.625 -6.40625 C 3.488281 -6.351562 3.347656 -6.28125 3.203125 -6.1875 C 3.066406 -6.101562 2.929688 -6.003906 2.796875 -5.890625 C 2.671875 -5.785156 2.5625 -5.6875 2.46875 -5.59375 L 2.46875 -1.109375 C 2.46875 -1.015625 2.476562 -0.914062 2.5 -0.8125 C 2.519531 -0.707031 2.554688 -0.601562 2.609375 -0.5 C 2.660156 -0.40625 2.71875 -0.328125 2.78125 -0.265625 C 2.84375 -0.203125 2.921875 -0.171875 3.015625 -0.171875 L 3.015625 0 L 0.78125 0 L 0.78125 -0.171875 C 0.851562 -0.171875 0.925781 -0.203125 1 -0.265625 C 1.070312 -0.328125 1.132812 -0.40625 1.1875 -0.5 C 1.238281 -0.601562 1.273438 -0.707031 1.296875 -0.8125 C 1.316406 -0.914062 1.328125 -1.015625 1.328125 -1.109375 L 1.328125 -5.921875 C 1.328125 -6.078125 1.273438 -6.234375 1.171875 -6.390625 C 1.066406 -6.554688 0.914062 -6.660156 0.71875 -6.703125 L 0.71875 -6.84375 L 2.46875 -7.359375 L 2.46875 -6.328125 C 2.570312 -6.453125 2.679688 -6.570312 2.796875 -6.6875 C 2.910156 -6.8125 3.035156 -6.921875 3.171875 -7.015625 C 3.316406 -7.117188 3.476562 -7.203125 3.65625 -7.265625 C 3.832031 -7.328125 4.035156 -7.359375 4.265625 -7.359375 C 4.421875 -7.359375 4.625 -7.320312 4.875 -7.25 C 5.132812 -7.1875 5.34375 -7.113281 5.5 -7.03125 Z M 4.984375 -5.984375 "/></g></g></g><g fill="#0979bd" fill-opacity="1"><g transform="translate(36.057213, 15.688138)"><g><path d="M 2.46875 -6.65625 L 2.46875 -2.5 C 2.46875 -2.195312 2.472656 -1.925781 2.484375 -1.6875 C 2.492188 -1.445312 2.519531 -1.242188 2.5625 -1.078125 C 2.613281 -0.921875 2.6875 -0.800781 2.78125 -0.71875 C 2.875 -0.632812 3 -0.59375 3.15625 -0.59375 C 3.394531 -0.59375 3.617188 -0.707031 3.828125 -0.9375 C 4.046875 -1.164062 4.1875 -1.441406 4.25 -1.765625 L 4.40625 -1.765625 L 4.40625 -0.5 C 4.300781 -0.5 4.210938 -0.460938 4.140625 -0.390625 C 4.046875 -0.316406 3.914062 -0.234375 3.75 -0.140625 C 3.582031 -0.046875 3.332031 0 3 0 C 2.582031 0 2.257812 -0.078125 2.03125 -0.234375 C 1.800781 -0.398438 1.632812 -0.613281 1.53125 -0.875 C 1.425781 -1.144531 1.363281 -1.441406 1.34375 -1.765625 C 1.332031 -2.085938 1.328125 -2.414062 1.328125 -2.75 L 1.328125 -6.65625 L 0.359375 -6.65625 L 0.359375 -7.25 L 1.328125 -7.25 L 1.328125 -8.78125 C 1.328125 -8.976562 1.300781 -9.160156 1.25 -9.328125 C 1.195312 -9.492188 1.023438 -9.582031 0.734375 -9.59375 L 0.734375 -9.765625 L 2.46875 -10.3125 L 2.46875 -7.25 L 4.40625 -7.25 L 4.40625 -6.65625 Z M 2.46875 -6.65625 "/></g></g></g><g fill="#0979bd" fill-opacity="1"><g transform="translate(40.974372, 15.688138)"><g/></g></g><g fill="#0979bd" fill-opacity="1"><g transform="translate(45.460201, 15.688138)"><g><path d="M 5.328125 0 L 5.328125 -0.875 L 5.25 -0.796875 C 4.957031 -0.503906 4.625 -0.273438 4.25 -0.109375 C 3.875 0.046875 3.421875 0.125 2.890625 0.125 C 2.492188 0.125 2.148438 0.078125 1.859375 -0.015625 C 1.578125 -0.109375 1.34375 -0.238281 1.15625 -0.40625 C 0.96875 -0.570312 0.832031 -0.765625 0.75 -0.984375 C 0.664062 -1.203125 0.625 -1.429688 0.625 -1.671875 C 0.625 -2.066406 0.726562 -2.410156 0.9375 -2.703125 C 1.15625 -3.003906 1.460938 -3.269531 1.859375 -3.5 C 2.265625 -3.726562 2.753906 -3.9375 3.328125 -4.125 C 3.910156 -4.320312 4.578125 -4.507812 5.328125 -4.6875 C 5.304688 -5.132812 5.210938 -5.492188 5.046875 -5.765625 C 4.890625 -6.046875 4.703125 -6.265625 4.484375 -6.421875 C 4.265625 -6.578125 4.035156 -6.679688 3.796875 -6.734375 C 3.554688 -6.785156 3.347656 -6.8125 3.171875 -6.8125 C 2.867188 -6.8125 2.601562 -6.765625 2.375 -6.671875 C 2.15625 -6.578125 1.960938 -6.457031 1.796875 -6.3125 C 1.628906 -6.175781 1.488281 -6.023438 1.375 -5.859375 C 1.257812 -5.691406 1.171875 -5.53125 1.109375 -5.375 L 0.953125 -5.375 L 0.953125 -6.640625 C 1.046875 -6.648438 1.128906 -6.675781 1.203125 -6.71875 C 1.285156 -6.769531 1.382812 -6.816406 1.5 -6.859375 C 1.675781 -6.929688 1.910156 -7.03125 2.203125 -7.15625 C 2.503906 -7.289062 2.925781 -7.359375 3.46875 -7.359375 C 4.101562 -7.359375 4.613281 -7.273438 5 -7.109375 C 5.394531 -6.953125 5.695312 -6.742188 5.90625 -6.484375 C 6.125 -6.222656 6.265625 -5.921875 6.328125 -5.578125 C 6.398438 -5.242188 6.4375 -4.894531 6.4375 -4.53125 L 6.4375 -1.125 C 6.4375 -0.894531 6.488281 -0.675781 6.59375 -0.46875 C 6.695312 -0.269531 6.832031 -0.171875 7 -0.171875 L 7 0 Z M 5.328125 -1.640625 L 5.328125 -4.109375 L 5.15625 -4.078125 C 4.882812 -4.003906 4.546875 -3.910156 4.140625 -3.796875 C 3.742188 -3.679688 3.367188 -3.53125 3.015625 -3.34375 C 2.660156 -3.164062 2.351562 -2.945312 2.09375 -2.6875 C 1.84375 -2.4375 1.71875 -2.144531 1.71875 -1.8125 C 1.71875 -1.445312 1.867188 -1.140625 2.171875 -0.890625 C 2.472656 -0.648438 2.863281 -0.53125 3.34375 -0.53125 C 3.726562 -0.53125 4.0625 -0.613281 4.34375 -0.78125 C 4.632812 -0.945312 4.898438 -1.164062 5.140625 -1.4375 Z M 5.328125 -1.640625 "/></g></g></g><g fill="#0979bd" fill-opacity="1"><g transform="translate(53.3449, 15.688138)"><g><path d="M 7.703125 -1.125 C 7.703125 -1.03125 7.710938 -0.925781 7.734375 -0.8125 C 7.765625 -0.707031 7.804688 -0.609375 7.859375 -0.515625 C 7.910156 -0.421875 7.96875 -0.335938 8.03125 -0.265625 C 8.09375 -0.203125 8.171875 -0.171875 8.265625 -0.171875 L 8.265625 0 L 6.03125 0 L 6.03125 -0.171875 C 6.113281 -0.171875 6.1875 -0.203125 6.25 -0.265625 C 6.320312 -0.335938 6.382812 -0.421875 6.4375 -0.515625 C 6.488281 -0.609375 6.523438 -0.707031 6.546875 -0.8125 C 6.578125 -0.925781 6.59375 -1.03125 6.59375 -1.125 L 6.59375 -4.328125 C 6.59375 -4.742188 6.535156 -5.101562 6.421875 -5.40625 C 6.304688 -5.71875 6.148438 -5.976562 5.953125 -6.1875 C 5.753906 -6.394531 5.53125 -6.546875 5.28125 -6.640625 C 5.039062 -6.742188 4.789062 -6.796875 4.53125 -6.796875 C 4.28125 -6.796875 4.03125 -6.742188 3.78125 -6.640625 C 3.539062 -6.535156 3.320312 -6.398438 3.125 -6.234375 C 2.9375 -6.066406 2.78125 -5.867188 2.65625 -5.640625 C 2.539062 -5.421875 2.484375 -5.191406 2.484375 -4.953125 L 2.484375 -1.125 C 2.484375 -1.03125 2.492188 -0.925781 2.515625 -0.8125 C 2.535156 -0.707031 2.570312 -0.609375 2.625 -0.515625 C 2.675781 -0.421875 2.734375 -0.335938 2.796875 -0.265625 C 2.859375 -0.203125 2.9375 -0.171875 3.03125 -0.171875 L 3.03125 0 L 0.796875 0 L 0.796875 -0.171875 C 0.878906 -0.171875 0.953125 -0.203125 1.015625 -0.265625 C 1.085938 -0.335938 1.148438 -0.421875 1.203125 -0.515625 C 1.253906 -0.609375 1.289062 -0.707031 1.3125 -0.8125 C 1.332031 -0.925781 1.34375 -1.03125 1.34375 -1.125 L 1.34375 -5.875 C 1.34375 -6.070312 1.3125 -6.257812 1.25 -6.4375 C 1.195312 -6.613281 1.035156 -6.710938 0.765625 -6.734375 L 0.765625 -6.875 L 2.484375 -7.4375 L 2.484375 -6.484375 C 2.566406 -6.578125 2.671875 -6.675781 2.796875 -6.78125 C 2.921875 -6.894531 3.070312 -7 3.25 -7.09375 C 3.425781 -7.195312 3.628906 -7.28125 3.859375 -7.34375 C 4.097656 -7.40625 4.378906 -7.4375 4.703125 -7.4375 C 5.242188 -7.4375 5.703125 -7.34375 6.078125 -7.15625 C 6.460938 -6.96875 6.773438 -6.726562 7.015625 -6.4375 C 7.265625 -6.144531 7.441406 -5.820312 7.546875 -5.46875 C 7.648438 -5.125 7.703125 -4.785156 7.703125 -4.453125 Z M 7.703125 -1.125 "/></g></g></g><g fill="#0979bd" fill-opacity="1"><g transform="translate(62.52359, 15.688138)"><g><path d="M 6.265625 0 L 6.265625 -0.765625 C 6.066406 -0.546875 5.800781 -0.34375 5.46875 -0.15625 C 5.144531 0.03125 4.738281 0.125 4.25 0.125 C 3.632812 0.125 3.097656 0.0195312 2.640625 -0.1875 C 2.191406 -0.40625 1.816406 -0.6875 1.515625 -1.03125 C 1.210938 -1.375 0.988281 -1.765625 0.84375 -2.203125 C 0.707031 -2.648438 0.640625 -3.113281 0.640625 -3.59375 C 0.640625 -4.050781 0.710938 -4.503906 0.859375 -4.953125 C 1.015625 -5.410156 1.238281 -5.816406 1.53125 -6.171875 C 1.832031 -6.523438 2.207031 -6.8125 2.65625 -7.03125 C 3.101562 -7.25 3.617188 -7.359375 4.203125 -7.359375 C 4.597656 -7.359375 4.984375 -7.285156 5.359375 -7.140625 C 5.742188 -7.003906 6.046875 -6.820312 6.265625 -6.59375 L 6.265625 -9.953125 C 6.265625 -10.148438 6.234375 -10.332031 6.171875 -10.5 C 6.117188 -10.675781 5.953125 -10.769531 5.671875 -10.78125 L 5.671875 -10.953125 L 7.40625 -11.484375 L 7.40625 -1.125 C 7.40625 -1.03125 7.414062 -0.925781 7.4375 -0.8125 C 7.457031 -0.707031 7.488281 -0.609375 7.53125 -0.515625 C 7.582031 -0.421875 7.640625 -0.335938 7.703125 -0.265625 C 7.773438 -0.203125 7.859375 -0.171875 7.953125 -0.171875 L 7.953125 0 Z M 4.359375 -0.453125 C 4.597656 -0.453125 4.832031 -0.5 5.0625 -0.59375 C 5.300781 -0.6875 5.503906 -0.816406 5.671875 -0.984375 C 5.847656 -1.148438 5.988281 -1.347656 6.09375 -1.578125 C 6.207031 -1.804688 6.265625 -2.050781 6.265625 -2.3125 L 6.265625 -4.671875 C 6.265625 -4.992188 6.191406 -5.285156 6.046875 -5.546875 C 5.910156 -5.804688 5.738281 -6.023438 5.53125 -6.203125 C 5.332031 -6.390625 5.109375 -6.53125 4.859375 -6.625 C 4.609375 -6.726562 4.367188 -6.78125 4.140625 -6.78125 C 3.765625 -6.78125 3.425781 -6.691406 3.125 -6.515625 C 2.820312 -6.335938 2.566406 -6.109375 2.359375 -5.828125 C 2.148438 -5.546875 1.992188 -5.226562 1.890625 -4.875 C 1.796875 -4.519531 1.75 -4.171875 1.75 -3.828125 C 1.75 -3.421875 1.804688 -3.019531 1.921875 -2.625 C 2.035156 -2.226562 2.203125 -1.875 2.421875 -1.5625 C 2.648438 -1.25 2.921875 -0.988281 3.234375 -0.78125 C 3.554688 -0.570312 3.929688 -0.460938 4.359375 -0.453125 Z M 4.359375 -0.453125 "/></g></g></g><g fill="#0979bd" fill-opacity="1"><g transform="translate(71.374469, 15.688138)"><g/></g></g><g fill="#0979bd" fill-opacity="1"><g transform="translate(75.860298, 15.688138)"><g><path d="M 0.765625 -11.390625 L 3.203125 -11.390625 C 4.484375 -11.390625 5.453125 -11.144531 6.109375 -10.65625 C 6.773438 -10.164062 7.109375 -9.472656 7.109375 -8.578125 C 7.109375 -8.085938 6.992188 -7.648438 6.765625 -7.265625 C 6.535156 -6.890625 6.234375 -6.570312 5.859375 -6.3125 C 5.484375 -6.0625 5.0625 -5.863281 4.59375 -5.71875 C 4.132812 -5.582031 3.671875 -5.515625 3.203125 -5.515625 L 2.546875 -5.515625 L 2.546875 -1.125 C 2.546875 -1.03125 2.554688 -0.925781 2.578125 -0.8125 C 2.609375 -0.707031 2.648438 -0.609375 2.703125 -0.515625 C 2.753906 -0.421875 2.8125 -0.335938 2.875 -0.265625 C 2.9375 -0.203125 3.015625 -0.171875 3.109375 -0.171875 L 3.1875 -0.171875 L 3.1875 0 L 0.765625 0 L 0.765625 -0.171875 L 0.84375 -0.171875 C 0.925781 -0.171875 1 -0.203125 1.0625 -0.265625 C 1.132812 -0.335938 1.191406 -0.421875 1.234375 -0.515625 C 1.285156 -0.609375 1.320312 -0.707031 1.34375 -0.8125 C 1.363281 -0.925781 1.375 -1.03125 1.375 -1.125 L 1.375 -10.3125 C 1.375 -10.476562 1.328125 -10.660156 1.234375 -10.859375 C 1.148438 -11.066406 1.019531 -11.1875 0.84375 -11.21875 L 0.765625 -11.21875 Z M 2.546875 -10.78125 L 2.546875 -6.125 L 3.078125 -6.125 C 3.535156 -6.125 3.941406 -6.1875 4.296875 -6.3125 C 4.660156 -6.4375 4.960938 -6.601562 5.203125 -6.8125 C 5.453125 -7.019531 5.640625 -7.253906 5.765625 -7.515625 C 5.890625 -7.785156 5.953125 -8.054688 5.953125 -8.328125 C 5.953125 -8.660156 5.894531 -8.972656 5.78125 -9.265625 C 5.675781 -9.566406 5.5 -9.828125 5.25 -10.046875 C 5 -10.273438 4.671875 -10.453125 4.265625 -10.578125 C 3.867188 -10.710938 3.378906 -10.78125 2.796875 -10.78125 Z M 2.546875 -10.78125 "/></g></g></g><g fill="#0979bd" fill-opacity="1"><g transform="translate(83.658738, 15.688138)"><g><path d="M 4.984375 -5.984375 C 4.847656 -6.210938 4.703125 -6.351562 4.546875 -6.40625 C 4.398438 -6.46875 4.226562 -6.5 4.03125 -6.5 C 3.90625 -6.5 3.769531 -6.46875 3.625 -6.40625 C 3.488281 -6.351562 3.347656 -6.28125 3.203125 -6.1875 C 3.066406 -6.101562 2.929688 -6.003906 2.796875 -5.890625 C 2.671875 -5.785156 2.5625 -5.6875 2.46875 -5.59375 L 2.46875 -1.109375 C 2.46875 -1.015625 2.476562 -0.914062 2.5 -0.8125 C 2.519531 -0.707031 2.554688 -0.601562 2.609375 -0.5 C 2.660156 -0.40625 2.71875 -0.328125 2.78125 -0.265625 C 2.84375 -0.203125 2.921875 -0.171875 3.015625 -0.171875 L 3.015625 0 L 0.78125 0 L 0.78125 -0.171875 C 0.851562 -0.171875 0.925781 -0.203125 1 -0.265625 C 1.070312 -0.328125 1.132812 -0.40625 1.1875 -0.5 C 1.238281 -0.601562 1.273438 -0.707031 1.296875 -0.8125 C 1.316406 -0.914062 1.328125 -1.015625 1.328125 -1.109375 L 1.328125 -5.921875 C 1.328125 -6.078125 1.273438 -6.234375 1.171875 -6.390625 C 1.066406 -6.554688 0.914062 -6.660156 0.71875 -6.703125 L 0.71875 -6.84375 L 2.46875 -7.359375 L 2.46875 -6.328125 C 2.570312 -6.453125 2.679688 -6.570312 2.796875 -6.6875 C 2.910156 -6.8125 3.035156 -6.921875 3.171875 -7.015625 C 3.316406 -7.117188 3.476562 -7.203125 3.65625 -7.265625 C 3.832031 -7.328125 4.035156 -7.359375 4.265625 -7.359375 C 4.421875 -7.359375 4.625 -7.320312 4.875 -7.25 C 5.132812 -7.1875 5.34375 -7.113281 5.5 -7.03125 Z M 4.984375 -5.984375 "/></g></g></g><g fill="#0979bd" fill-opacity="1"><g transform="translate(89.473061, 15.688138)"><g><path d="M 1.015625 0 L 1.015625 -0.171875 C 1.109375 -0.171875 1.1875 -0.203125 1.25 -0.265625 C 1.320312 -0.335938 1.378906 -0.421875 1.421875 -0.515625 C 1.472656 -0.609375 1.507812 -0.707031 1.53125 -0.8125 C 1.550781 -0.925781 1.5625 -1.03125 1.5625 -1.125 L 1.5625 -5.90625 C 1.5625 -6.09375 1.53125 -6.273438 1.46875 -6.453125 C 1.414062 -6.640625 1.253906 -6.738281 0.984375 -6.75 L 0.984375 -6.90625 L 2.703125 -7.453125 L 2.703125 -1.125 C 2.703125 -1.03125 2.710938 -0.925781 2.734375 -0.8125 C 2.765625 -0.707031 2.800781 -0.609375 2.84375 -0.515625 C 2.894531 -0.421875 2.953125 -0.335938 3.015625 -0.265625 C 3.085938 -0.203125 3.171875 -0.171875 3.265625 -0.171875 L 3.265625 0 Z M 1.109375 -9.109375 C 1.109375 -9.335938 1.179688 -9.53125 1.328125 -9.6875 C 1.484375 -9.851562 1.679688 -9.9375 1.921875 -9.9375 C 2.148438 -9.9375 2.34375 -9.851562 2.5 -9.6875 C 2.664062 -9.53125 2.75 -9.335938 2.75 -9.109375 C 2.75 -8.878906 2.664062 -8.6875 2.5 -8.53125 C 2.34375 -8.382812 2.148438 -8.3125 1.921875 -8.3125 C 1.679688 -8.3125 1.484375 -8.382812 1.328125 -8.53125 C 1.179688 -8.6875 1.109375 -8.878906 1.109375 -9.109375 Z M 1.109375 -9.109375 "/></g></g></g><g fill="#0979bd" fill-opacity="1"><g transform="translate(93.803607, 15.688138)"><g><path d="M 7.75 -7.25 L 7.75 -7.078125 C 7.664062 -7.078125 7.582031 -7.046875 7.5 -6.984375 C 7.425781 -6.929688 7.347656 -6.859375 7.265625 -6.765625 C 7.191406 -6.671875 7.125 -6.566406 7.0625 -6.453125 C 7 -6.347656 6.945312 -6.25 6.90625 -6.15625 L 3.9375 0.296875 L 0.984375 -6.234375 C 0.898438 -6.410156 0.796875 -6.59375 0.671875 -6.78125 C 0.546875 -6.976562 0.382812 -7.078125 0.1875 -7.078125 L 0.1875 -7.25 L 2.546875 -7.25 L 2.546875 -7.078125 C 2.484375 -7.078125 2.394531 -7.039062 2.28125 -6.96875 C 2.175781 -6.894531 2.125 -6.796875 2.125 -6.671875 C 2.125 -6.617188 2.171875 -6.488281 2.265625 -6.28125 L 4.25 -1.8125 L 6.375 -6.46875 C 6.425781 -6.582031 6.453125 -6.671875 6.453125 -6.734375 C 6.453125 -6.828125 6.398438 -6.90625 6.296875 -6.96875 C 6.203125 -7.039062 6.125 -7.078125 6.0625 -7.078125 L 6.0625 -7.25 Z M 7.75 -7.25 "/></g></g></g><g fill="#0979bd" fill-opacity="1"><g transform="translate(101.843589, 15.688138)"><g><path d="M 5.328125 0 L 5.328125 -0.875 L 5.25 -0.796875 C 4.957031 -0.503906 4.625 -0.273438 4.25 -0.109375 C 3.875 0.046875 3.421875 0.125 2.890625 0.125 C 2.492188 0.125 2.148438 0.078125 1.859375 -0.015625 C 1.578125 -0.109375 1.34375 -0.238281 1.15625 -0.40625 C 0.96875 -0.570312 0.832031 -0.765625 0.75 -0.984375 C 0.664062 -1.203125 0.625 -1.429688 0.625 -1.671875 C 0.625 -2.066406 0.726562 -2.410156 0.9375 -2.703125 C 1.15625 -3.003906 1.460938 -3.269531 1.859375 -3.5 C 2.265625 -3.726562 2.753906 -3.9375 3.328125 -4.125 C 3.910156 -4.320312 4.578125 -4.507812 5.328125 -4.6875 C 5.304688 -5.132812 5.210938 -5.492188 5.046875 -5.765625 C 4.890625 -6.046875 4.703125 -6.265625 4.484375 -6.421875 C 4.265625 -6.578125 4.035156 -6.679688 3.796875 -6.734375 C 3.554688 -6.785156 3.347656 -6.8125 3.171875 -6.8125 C 2.867188 -6.8125 2.601562 -6.765625 2.375 -6.671875 C 2.15625 -6.578125 1.960938 -6.457031 1.796875 -6.3125 C 1.628906 -6.175781 1.488281 -6.023438 1.375 -5.859375 C 1.257812 -5.691406 1.171875 -5.53125 1.109375 -5.375 L 0.953125 -5.375 L 0.953125 -6.640625 C 1.046875 -6.648438 1.128906 -6.675781 1.203125 -6.71875 C 1.285156 -6.769531 1.382812 -6.816406 1.5 -6.859375 C 1.675781 -6.929688 1.910156 -7.03125 2.203125 -7.15625 C 2.503906 -7.289062 2.925781 -7.359375 3.46875 -7.359375 C 4.101562 -7.359375 4.613281 -7.273438 5 -7.109375 C 5.394531 -6.953125 5.695312 -6.742188 5.90625 -6.484375 C 6.125 -6.222656 6.265625 -5.921875 6.328125 -5.578125 C 6.398438 -5.242188 6.4375 -4.894531 6.4375 -4.53125 L 6.4375 -1.125 C 6.4375 -0.894531 6.488281 -0.675781 6.59375 -0.46875 C 6.695312 -0.269531 6.832031 -0.171875 7 -0.171875 L 7 0 Z M 5.328125 -1.640625 L 5.328125 -4.109375 L 5.15625 -4.078125 C 4.882812 -4.003906 4.546875 -3.910156 4.140625 -3.796875 C 3.742188 -3.679688 3.367188 -3.53125 3.015625 -3.34375 C 2.660156 -3.164062 2.351562 -2.945312 2.09375 -2.6875 C 1.84375 -2.4375 1.71875 -2.144531 1.71875 -1.8125 C 1.71875 -1.445312 1.867188 -1.140625 2.171875 -0.890625 C 2.472656 -0.648438 2.863281 -0.53125 3.34375 -0.53125 C 3.726562 -0.53125 4.0625 -0.613281 4.34375 -0.78125 C 4.632812 -0.945312 4.898438 -1.164062 5.140625 -1.4375 Z M 5.328125 -1.640625 "/></g></g></g><g fill="#0979bd" fill-opacity="1"><g transform="translate(109.728289, 15.688138)"><g><path d="M 2.46875 -6.65625 L 2.46875 -2.5 C 2.46875 -2.195312 2.472656 -1.925781 2.484375 -1.6875 C 2.492188 -1.445312 2.519531 -1.242188 2.5625 -1.078125 C 2.613281 -0.921875 2.6875 -0.800781 2.78125 -0.71875 C 2.875 -0.632812 3 -0.59375 3.15625 -0.59375 C 3.394531 -0.59375 3.617188 -0.707031 3.828125 -0.9375 C 4.046875 -1.164062 4.1875 -1.441406 4.25 -1.765625 L 4.40625 -1.765625 L 4.40625 -0.5 C 4.300781 -0.5 4.210938 -0.460938 4.140625 -0.390625 C 4.046875 -0.316406 3.914062 -0.234375 3.75 -0.140625 C 3.582031 -0.046875 3.332031 0 3 0 C 2.582031 0 2.257812 -0.078125 2.03125 -0.234375 C 1.800781 -0.398438 1.632812 -0.613281 1.53125 -0.875 C 1.425781 -1.144531 1.363281 -1.441406 1.34375 -1.765625 C 1.332031 -2.085938 1.328125 -2.414062 1.328125 -2.75 L 1.328125 -6.65625 L 0.359375 -6.65625 L 0.359375 -7.25 L 1.328125 -7.25 L 1.328125 -8.78125 C 1.328125 -8.976562 1.300781 -9.160156 1.25 -9.328125 C 1.195312 -9.492188 1.023438 -9.582031 0.734375 -9.59375 L 0.734375 -9.765625 L 2.46875 -10.3125 L 2.46875 -7.25 L 4.40625 -7.25 L 4.40625 -6.65625 Z M 2.46875 -6.65625 "/></g></g></g><g fill="#0979bd" fill-opacity="1"><g transform="translate(114.645448, 15.688138)"><g><path d="M 1.71875 -3.484375 C 1.769531 -3.078125 1.867188 -2.691406 2.015625 -2.328125 C 2.171875 -1.972656 2.367188 -1.65625 2.609375 -1.375 C 2.859375 -1.101562 3.160156 -0.882812 3.515625 -0.71875 C 3.867188 -0.550781 4.285156 -0.46875 4.765625 -0.46875 C 5.015625 -0.46875 5.28125 -0.503906 5.5625 -0.578125 C 5.84375 -0.648438 6.101562 -0.753906 6.34375 -0.890625 C 6.582031 -1.035156 6.796875 -1.207031 6.984375 -1.40625 C 7.179688 -1.601562 7.316406 -1.832031 7.390625 -2.09375 L 7.53125 -2.09375 L 7.53125 -0.796875 C 7.46875 -0.796875 7.390625 -0.769531 7.296875 -0.71875 C 7.210938 -0.675781 7.113281 -0.617188 7 -0.546875 C 6.769531 -0.410156 6.457031 -0.265625 6.0625 -0.109375 C 5.675781 0.046875 5.160156 0.125 4.515625 0.125 C 4.003906 0.125 3.515625 0.0507812 3.046875 -0.09375 C 2.578125 -0.25 2.164062 -0.484375 1.8125 -0.796875 C 1.457031 -1.109375 1.171875 -1.503906 0.953125 -1.984375 C 0.742188 -2.460938 0.640625 -3.035156 0.640625 -3.703125 C 0.640625 -4.128906 0.707031 -4.5625 0.84375 -5 C 0.988281 -5.4375 1.207031 -5.828125 1.5 -6.171875 C 1.800781 -6.523438 2.179688 -6.8125 2.640625 -7.03125 C 3.097656 -7.25 3.648438 -7.359375 4.296875 -7.359375 C 4.867188 -7.359375 5.367188 -7.257812 5.796875 -7.0625 C 6.234375 -6.875 6.59375 -6.609375 6.875 -6.265625 C 7.15625 -5.921875 7.363281 -5.507812 7.5 -5.03125 C 7.632812 -4.5625 7.703125 -4.046875 7.703125 -3.484375 Z M 4.21875 -6.796875 C 3.820312 -6.796875 3.476562 -6.710938 3.1875 -6.546875 C 2.894531 -6.390625 2.644531 -6.179688 2.4375 -5.921875 C 2.226562 -5.671875 2.066406 -5.382812 1.953125 -5.0625 C 1.835938 -4.75 1.757812 -4.429688 1.71875 -4.109375 L 6.640625 -4.109375 C 6.628906 -4.441406 6.566406 -4.769531 6.453125 -5.09375 C 6.347656 -5.414062 6.195312 -5.703125 6 -5.953125 C 5.800781 -6.203125 5.550781 -6.40625 5.25 -6.5625 C 4.957031 -6.71875 4.613281 -6.796875 4.21875 -6.796875 Z M 4.21875 -6.796875 "/></g></g></g><g fill="#0979bd" fill-opacity="1"><g transform="translate(123.013241, 15.688138)"><g/></g></g><g fill="#0979bd" fill-opacity="1"><g transform="translate(127.49907, 15.688138)"><g><path d="M 5.140625 -0.171875 L 5.234375 -0.171875 L 5.234375 0 L 2.78125 0 L 2.78125 -0.171875 L 2.859375 -0.171875 C 2.953125 -0.171875 3.03125 -0.203125 3.09375 -0.265625 C 3.164062 -0.335938 3.226562 -0.421875 3.28125 -0.515625 C 3.332031 -0.609375 3.367188 -0.707031 3.390625 -0.8125 C 3.421875 -0.925781 3.4375 -1.03125 3.4375 -1.125 L 3.4375 -10.75 L 1.4375 -10.75 C 1.25 -10.75 1.082031 -10.707031 0.9375 -10.625 C 0.800781 -10.539062 0.6875 -10.4375 0.59375 -10.3125 C 0.507812 -10.195312 0.441406 -10.066406 0.390625 -9.921875 C 0.347656 -9.785156 0.328125 -9.644531 0.328125 -9.5 L 0.15625 -9.5 L 0.15625 -11.390625 L 7.90625 -11.390625 L 7.90625 -9.5 L 7.734375 -9.5 C 7.734375 -9.644531 7.707031 -9.785156 7.65625 -9.921875 C 7.613281 -10.066406 7.546875 -10.195312 7.453125 -10.3125 C 7.359375 -10.4375 7.242188 -10.539062 7.109375 -10.625 C 6.972656 -10.707031 6.8125 -10.75 6.625 -10.75 L 4.59375 -10.75 L 4.59375 -1.125 C 4.59375 -1.03125 4.601562 -0.925781 4.625 -0.8125 C 4.644531 -0.707031 4.679688 -0.609375 4.734375 -0.515625 C 4.785156 -0.421875 4.84375 -0.335938 4.90625 -0.265625 C 4.96875 -0.203125 5.046875 -0.171875 5.140625 -0.171875 Z M 5.140625 -0.171875 "/></g></g></g><g fill="#0979bd" fill-opacity="1"><g transform="translate(135.573548, 15.688138)"><g><path d="M 7.609375 -1.125 C 7.609375 -1.039062 7.617188 -0.941406 7.640625 -0.828125 C 7.660156 -0.722656 7.691406 -0.617188 7.734375 -0.515625 C 7.773438 -0.421875 7.828125 -0.335938 7.890625 -0.265625 C 7.960938 -0.203125 8.046875 -0.171875 8.140625 -0.171875 L 8.140625 0 L 6.46875 0 L 6.46875 -0.953125 C 6.289062 -0.691406 6.035156 -0.441406 5.703125 -0.203125 C 5.367188 0.0351562 4.941406 0.15625 4.421875 0.15625 C 3.753906 0.15625 3.222656 0.0390625 2.828125 -0.1875 C 2.441406 -0.414062 2.144531 -0.707031 1.9375 -1.0625 C 1.726562 -1.425781 1.59375 -1.816406 1.53125 -2.234375 C 1.476562 -2.648438 1.453125 -3.046875 1.453125 -3.421875 L 1.453125 -5.875 C 1.453125 -5.976562 1.445312 -6.078125 1.4375 -6.171875 C 1.4375 -6.273438 1.414062 -6.367188 1.375 -6.453125 C 1.332031 -6.535156 1.269531 -6.601562 1.1875 -6.65625 C 1.101562 -6.707031 0.988281 -6.734375 0.84375 -6.734375 L 0.84375 -6.875 L 2.59375 -7.4375 L 2.59375 -3.03125 C 2.59375 -2.15625 2.78125 -1.507812 3.15625 -1.09375 C 3.53125 -0.6875 3.992188 -0.484375 4.546875 -0.484375 C 4.847656 -0.484375 5.113281 -0.546875 5.34375 -0.671875 C 5.582031 -0.804688 5.785156 -0.96875 5.953125 -1.15625 C 6.117188 -1.34375 6.242188 -1.53125 6.328125 -1.71875 C 6.421875 -1.914062 6.46875 -2.078125 6.46875 -2.203125 L 6.46875 -5.875 C 6.46875 -5.976562 6.460938 -6.078125 6.453125 -6.171875 C 6.453125 -6.273438 6.429688 -6.367188 6.390625 -6.453125 C 6.347656 -6.535156 6.285156 -6.601562 6.203125 -6.65625 C 6.128906 -6.707031 6.015625 -6.734375 5.859375 -6.734375 L 5.859375 -6.875 L 7.609375 -7.4375 Z M 7.609375 -1.125 "/></g></g></g><g fill="#0979bd" fill-opacity="1"><g transform="translate(144.61423, 15.688138)"><g><path d="M 2.46875 -6.65625 L 2.46875 -2.5 C 2.46875 -2.195312 2.472656 -1.925781 2.484375 -1.6875 C 2.492188 -1.445312 2.519531 -1.242188 2.5625 -1.078125 C 2.613281 -0.921875 2.6875 -0.800781 2.78125 -0.71875 C 2.875 -0.632812 3 -0.59375 3.15625 -0.59375 C 3.394531 -0.59375 3.617188 -0.707031 3.828125 -0.9375 C 4.046875 -1.164062 4.1875 -1.441406 4.25 -1.765625 L 4.40625 -1.765625 L 4.40625 -0.5 C 4.300781 -0.5 4.210938 -0.460938 4.140625 -0.390625 C 4.046875 -0.316406 3.914062 -0.234375 3.75 -0.140625 C 3.582031 -0.046875 3.332031 0 3 0 C 2.582031 0 2.257812 -0.078125 2.03125 -0.234375 C 1.800781 -0.398438 1.632812 -0.613281 1.53125 -0.875 C 1.425781 -1.144531 1.363281 -1.441406 1.34375 -1.765625 C 1.332031 -2.085938 1.328125 -2.414062 1.328125 -2.75 L 1.328125 -6.65625 L 0.359375 -6.65625 L 0.359375 -7.25 L 1.328125 -7.25 L 1.328125 -8.78125 C 1.328125 -8.976562 1.300781 -9.160156 1.25 -9.328125 C 1.195312 -9.492188 1.023438 -9.582031 0.734375 -9.59375 L 0.734375 -9.765625 L 2.46875 -10.3125 L 2.46875 -7.25 L 4.40625 -7.25 L 4.40625 -6.65625 Z M 2.46875 -6.65625 "/></g></g></g><g fill="#0979bd" fill-opacity="1"><g transform="translate(149.531382, 15.688138)"><g><path d="M 4.40625 0.125 C 3.820312 0.125 3.300781 0.03125 2.84375 -0.15625 C 2.382812 -0.351562 1.988281 -0.613281 1.65625 -0.9375 C 1.332031 -1.269531 1.082031 -1.660156 0.90625 -2.109375 C 0.726562 -2.554688 0.640625 -3.046875 0.640625 -3.578125 C 0.640625 -4.140625 0.734375 -4.648438 0.921875 -5.109375 C 1.117188 -5.578125 1.390625 -5.976562 1.734375 -6.3125 C 2.085938 -6.644531 2.5 -6.898438 2.96875 -7.078125 C 3.4375 -7.265625 3.945312 -7.359375 4.5 -7.359375 C 5.050781 -7.359375 5.554688 -7.269531 6.015625 -7.09375 C 6.472656 -6.914062 6.867188 -6.664062 7.203125 -6.34375 C 7.535156 -6.019531 7.796875 -5.632812 7.984375 -5.1875 C 8.171875 -4.75 8.265625 -4.269531 8.265625 -3.75 C 8.265625 -3.25 8.179688 -2.765625 8.015625 -2.296875 C 7.847656 -1.835938 7.597656 -1.425781 7.265625 -1.0625 C 6.941406 -0.707031 6.539062 -0.421875 6.0625 -0.203125 C 5.582031 0.015625 5.03125 0.125 4.40625 0.125 Z M 4.296875 -6.796875 C 3.878906 -6.773438 3.507812 -6.675781 3.1875 -6.5 C 2.875 -6.320312 2.613281 -6.085938 2.40625 -5.796875 C 2.195312 -5.515625 2.035156 -5.195312 1.921875 -4.84375 C 1.816406 -4.488281 1.765625 -4.128906 1.765625 -3.765625 C 1.765625 -3.335938 1.828125 -2.925781 1.953125 -2.53125 C 2.085938 -2.132812 2.273438 -1.78125 2.515625 -1.46875 C 2.765625 -1.15625 3.0625 -0.90625 3.40625 -0.71875 C 3.757812 -0.539062 4.148438 -0.453125 4.578125 -0.453125 C 4.992188 -0.453125 5.363281 -0.539062 5.6875 -0.71875 C 6.019531 -0.90625 6.296875 -1.144531 6.515625 -1.4375 C 6.734375 -1.726562 6.894531 -2.054688 7 -2.421875 C 7.113281 -2.796875 7.171875 -3.164062 7.171875 -3.53125 C 7.171875 -3.914062 7.113281 -4.300781 7 -4.6875 C 6.882812 -5.070312 6.707031 -5.421875 6.46875 -5.734375 C 6.226562 -6.046875 5.925781 -6.300781 5.5625 -6.5 C 5.195312 -6.695312 4.773438 -6.796875 4.296875 -6.796875 Z M 4.296875 -6.796875 "/></g></g></g><g fill="#0979bd" fill-opacity="1"><g transform="translate(158.554795, 15.688138)"><g><path d="M 4.984375 -5.984375 C 4.847656 -6.210938 4.703125 -6.351562 4.546875 -6.40625 C 4.398438 -6.46875 4.226562 -6.5 4.03125 -6.5 C 3.90625 -6.5 3.769531 -6.46875 3.625 -6.40625 C 3.488281 -6.351562 3.347656 -6.28125 3.203125 -6.1875 C 3.066406 -6.101562 2.929688 -6.003906 2.796875 -5.890625 C 2.671875 -5.785156 2.5625 -5.6875 2.46875 -5.59375 L 2.46875 -1.109375 C 2.46875 -1.015625 2.476562 -0.914062 2.5 -0.8125 C 2.519531 -0.707031 2.554688 -0.601562 2.609375 -0.5 C 2.660156 -0.40625 2.71875 -0.328125 2.78125 -0.265625 C 2.84375 -0.203125 2.921875 -0.171875 3.015625 -0.171875 L 3.015625 0 L 0.78125 0 L 0.78125 -0.171875 C 0.851562 -0.171875 0.925781 -0.203125 1 -0.265625 C 1.070312 -0.328125 1.132812 -0.40625 1.1875 -0.5 C 1.238281 -0.601562 1.273438 -0.707031 1.296875 -0.8125 C 1.316406 -0.914062 1.328125 -1.015625 1.328125 -1.109375 L 1.328125 -5.921875 C 1.328125 -6.078125 1.273438 -6.234375 1.171875 -6.390625 C 1.066406 -6.554688 0.914062 -6.660156 0.71875 -6.703125 L 0.71875 -6.84375 L 2.46875 -7.359375 L 2.46875 -6.328125 C 2.570312 -6.453125 2.679688 -6.570312 2.796875 -6.6875 C 2.910156 -6.8125 3.035156 -6.921875 3.171875 -7.015625 C 3.316406 -7.117188 3.476562 -7.203125 3.65625 -7.265625 C 3.832031 -7.328125 4.035156 -7.359375 4.265625 -7.359375 C 4.421875 -7.359375 4.625 -7.320312 4.875 -7.25 C 5.132812 -7.1875 5.34375 -7.113281 5.5 -7.03125 Z M 4.984375 -5.984375 "/></g></g></g><g fill="#0979bd" fill-opacity="1"><g transform="translate(164.369127, 15.688138)"><g><path d="M 1.015625 0 L 1.015625 -0.171875 C 1.109375 -0.171875 1.1875 -0.203125 1.25 -0.265625 C 1.320312 -0.335938 1.378906 -0.421875 1.421875 -0.515625 C 1.472656 -0.609375 1.507812 -0.707031 1.53125 -0.8125 C 1.550781 -0.925781 1.5625 -1.03125 1.5625 -1.125 L 1.5625 -5.90625 C 1.5625 -6.09375 1.53125 -6.273438 1.46875 -6.453125 C 1.414062 -6.640625 1.253906 -6.738281 0.984375 -6.75 L 0.984375 -6.90625 L 2.703125 -7.453125 L 2.703125 -1.125 C 2.703125 -1.03125 2.710938 -0.925781 2.734375 -0.8125 C 2.765625 -0.707031 2.800781 -0.609375 2.84375 -0.515625 C 2.894531 -0.421875 2.953125 -0.335938 3.015625 -0.265625 C 3.085938 -0.203125 3.171875 -0.171875 3.265625 -0.171875 L 3.265625 0 Z M 1.109375 -9.109375 C 1.109375 -9.335938 1.179688 -9.53125 1.328125 -9.6875 C 1.484375 -9.851562 1.679688 -9.9375 1.921875 -9.9375 C 2.148438 -9.9375 2.34375 -9.851562 2.5 -9.6875 C 2.664062 -9.53125 2.75 -9.335938 2.75 -9.109375 C 2.75 -8.878906 2.664062 -8.6875 2.5 -8.53125 C 2.34375 -8.382812 2.148438 -8.3125 1.921875 -8.3125 C 1.679688 -8.3125 1.484375 -8.382812 1.328125 -8.53125 C 1.179688 -8.6875 1.109375 -8.878906 1.109375 -9.109375 Z M 1.109375 -9.109375 "/></g></g></g><g fill="#0979bd" fill-opacity="1"><g transform="translate(168.699665, 15.688138)"><g><path d="M 7.703125 -1.125 C 7.703125 -1.03125 7.710938 -0.925781 7.734375 -0.8125 C 7.765625 -0.707031 7.804688 -0.609375 7.859375 -0.515625 C 7.910156 -0.421875 7.96875 -0.335938 8.03125 -0.265625 C 8.09375 -0.203125 8.171875 -0.171875 8.265625 -0.171875 L 8.265625 0 L 6.03125 0 L 6.03125 -0.171875 C 6.113281 -0.171875 6.1875 -0.203125 6.25 -0.265625 C 6.320312 -0.335938 6.382812 -0.421875 6.4375 -0.515625 C 6.488281 -0.609375 6.523438 -0.707031 6.546875 -0.8125 C 6.578125 -0.925781 6.59375 -1.03125 6.59375 -1.125 L 6.59375 -4.328125 C 6.59375 -4.742188 6.535156 -5.101562 6.421875 -5.40625 C 6.304688 -5.71875 6.148438 -5.976562 5.953125 -6.1875 C 5.753906 -6.394531 5.53125 -6.546875 5.28125 -6.640625 C 5.039062 -6.742188 4.789062 -6.796875 4.53125 -6.796875 C 4.28125 -6.796875 4.03125 -6.742188 3.78125 -6.640625 C 3.539062 -6.535156 3.320312 -6.398438 3.125 -6.234375 C 2.9375 -6.066406 2.78125 -5.867188 2.65625 -5.640625 C 2.539062 -5.421875 2.484375 -5.191406 2.484375 -4.953125 L 2.484375 -1.125 C 2.484375 -1.03125 2.492188 -0.925781 2.515625 -0.8125 C 2.535156 -0.707031 2.570312 -0.609375 2.625 -0.515625 C 2.675781 -0.421875 2.734375 -0.335938 2.796875 -0.265625 C 2.859375 -0.203125 2.9375 -0.171875 3.03125 -0.171875 L 3.03125 0 L 0.796875 0 L 0.796875 -0.171875 C 0.878906 -0.171875 0.953125 -0.203125 1.015625 -0.265625 C 1.085938 -0.335938 1.148438 -0.421875 1.203125 -0.515625 C 1.253906 -0.609375 1.289062 -0.707031 1.3125 -0.8125 C 1.332031 -0.925781 1.34375 -1.03125 1.34375 -1.125 L 1.34375 -5.875 C 1.34375 -6.070312 1.3125 -6.257812 1.25 -6.4375 C 1.195312 -6.613281 1.035156 -6.710938 0.765625 -6.734375 L 0.765625 -6.875 L 2.484375 -7.4375 L 2.484375 -6.484375 C 2.566406 -6.578125 2.671875 -6.675781 2.796875 -6.78125 C 2.921875 -6.894531 3.070312 -7 3.25 -7.09375 C 3.425781 -7.195312 3.628906 -7.28125 3.859375 -7.34375 C 4.097656 -7.40625 4.378906 -7.4375 4.703125 -7.4375 C 5.242188 -7.4375 5.703125 -7.34375 6.078125 -7.15625 C 6.460938 -6.96875 6.773438 -6.726562 7.015625 -6.4375 C 7.265625 -6.144531 7.441406 -5.820312 7.546875 -5.46875 C 7.648438 -5.125 7.703125 -4.785156 7.703125 -4.453125 Z M 7.703125 -1.125 "/></g></g></g><g fill="#0979bd" fill-opacity="1"><g transform="translate(177.878347, 15.688138)"><g><path d="M 4.359375 3.203125 C 4.703125 3.203125 5.03125 3.171875 5.34375 3.109375 C 5.65625 3.046875 5.925781 2.957031 6.15625 2.84375 C 6.394531 2.726562 6.582031 2.585938 6.71875 2.421875 C 6.863281 2.265625 6.9375 2.097656 6.9375 1.921875 C 6.9375 1.722656 6.835938 1.550781 6.640625 1.40625 C 6.453125 1.269531 6.195312 1.148438 5.875 1.046875 C 5.5625 0.941406 5.191406 0.851562 4.765625 0.78125 C 4.335938 0.707031 3.894531 0.628906 3.4375 0.546875 L 2.546875 0.390625 C 2.285156 0.597656 2.101562 0.816406 2 1.046875 C 1.894531 1.273438 1.84375 1.476562 1.84375 1.65625 C 1.84375 1.894531 1.910156 2.109375 2.046875 2.296875 C 2.179688 2.492188 2.359375 2.660156 2.578125 2.796875 C 2.804688 2.929688 3.070312 3.03125 3.375 3.09375 C 3.675781 3.164062 4.003906 3.203125 4.359375 3.203125 Z M 5.3125 -0.234375 C 5.769531 -0.171875 6.148438 -0.0820312 6.453125 0.03125 C 6.765625 0.144531 7.007812 0.28125 7.1875 0.4375 C 7.375 0.59375 7.5 0.765625 7.5625 0.953125 C 7.632812 1.140625 7.671875 1.34375 7.671875 1.5625 C 7.671875 1.957031 7.5625 2.296875 7.34375 2.578125 C 7.132812 2.867188 6.859375 3.109375 6.515625 3.296875 C 6.179688 3.492188 5.796875 3.632812 5.359375 3.71875 C 4.929688 3.8125 4.492188 3.859375 4.046875 3.859375 C 3.609375 3.859375 3.1875 3.816406 2.78125 3.734375 C 2.382812 3.648438 2.03125 3.519531 1.71875 3.34375 C 1.414062 3.175781 1.171875 2.960938 0.984375 2.703125 C 0.796875 2.441406 0.703125 2.144531 0.703125 1.8125 C 0.703125 1.507812 0.796875 1.222656 0.984375 0.953125 C 1.171875 0.679688 1.46875 0.414062 1.875 0.15625 C 1.476562 -0.0507812 1.171875 -0.328125 0.953125 -0.671875 C 0.742188 -1.023438 0.640625 -1.390625 0.640625 -1.765625 C 0.640625 -1.984375 0.691406 -2.195312 0.796875 -2.40625 C 0.898438 -2.613281 1.066406 -2.8125 1.296875 -3 C 1.097656 -3.226562 0.957031 -3.457031 0.875 -3.6875 C 0.800781 -3.914062 0.765625 -4.164062 0.765625 -4.4375 C 0.765625 -4.84375 0.847656 -5.222656 1.015625 -5.578125 C 1.191406 -5.941406 1.425781 -6.253906 1.71875 -6.515625 C 2.019531 -6.785156 2.367188 -6.992188 2.765625 -7.140625 C 3.171875 -7.285156 3.609375 -7.359375 4.078125 -7.359375 C 4.554688 -7.359375 5.015625 -7.273438 5.453125 -7.109375 C 5.890625 -6.941406 6.257812 -6.726562 6.5625 -6.46875 L 7.796875 -6.46875 L 7.796875 -5.84375 L 7 -5.84375 C 7.082031 -5.675781 7.160156 -5.472656 7.234375 -5.234375 C 7.316406 -4.992188 7.359375 -4.75 7.359375 -4.5 C 7.359375 -4.132812 7.269531 -3.785156 7.09375 -3.453125 C 6.925781 -3.128906 6.691406 -2.84375 6.390625 -2.59375 C 6.085938 -2.34375 5.726562 -2.144531 5.3125 -2 C 4.90625 -1.863281 4.472656 -1.796875 4.015625 -1.796875 C 3.585938 -1.796875 3.171875 -1.859375 2.765625 -1.984375 C 2.367188 -2.109375 2.015625 -2.289062 1.703125 -2.53125 C 1.578125 -2.457031 1.488281 -2.359375 1.4375 -2.234375 C 1.394531 -2.109375 1.375 -1.984375 1.375 -1.859375 C 1.375 -1.492188 1.539062 -1.207031 1.875 -1 C 2.207031 -0.800781 2.632812 -0.664062 3.15625 -0.59375 Z M 3.859375 -6.765625 C 3.585938 -6.765625 3.328125 -6.710938 3.078125 -6.609375 C 2.835938 -6.515625 2.625 -6.378906 2.4375 -6.203125 C 2.257812 -6.035156 2.113281 -5.828125 2 -5.578125 C 1.894531 -5.328125 1.84375 -5.050781 1.84375 -4.75 C 1.84375 -4.363281 1.921875 -4.019531 2.078125 -3.71875 C 2.234375 -3.425781 2.429688 -3.179688 2.671875 -2.984375 C 2.910156 -2.785156 3.175781 -2.632812 3.46875 -2.53125 C 3.769531 -2.425781 4.050781 -2.375 4.3125 -2.375 C 4.601562 -2.375 4.863281 -2.425781 5.09375 -2.53125 C 5.332031 -2.644531 5.535156 -2.796875 5.703125 -2.984375 C 5.878906 -3.179688 6.015625 -3.40625 6.109375 -3.65625 C 6.203125 -3.90625 6.25 -4.171875 6.25 -4.453125 C 6.25 -4.796875 6.175781 -5.109375 6.03125 -5.390625 C 5.894531 -5.679688 5.710938 -5.925781 5.484375 -6.125 C 5.265625 -6.332031 5.007812 -6.488281 4.71875 -6.59375 C 4.4375 -6.707031 4.148438 -6.765625 3.859375 -6.765625 Z M 3.859375 -6.765625 "/></g></g></g></g></g><g transform="matrix(1, 0, 0, 1, 28, 235)"><g clip-path="url(#d3412fc5bd)"><g fill="#231f20" fill-opacity="1"><g transform="translate(1.310036, 16.510067)"><g><path d="M 0.421875 0 L 0.421875 -0.59375 C 1.085938 -0.664062 1.550781 -0.859375 1.8125 -1.171875 C 2.070312 -1.484375 2.203125 -2.003906 2.203125 -2.734375 L 2.203125 -10.296875 C 2.203125 -10.597656 2.097656 -10.8125 1.890625 -10.9375 C 1.679688 -11.0625 1.300781 -11.125 0.75 -11.125 L 0.421875 -11.125 L 0.421875 -11.6875 L 5.34375 -11.6875 L 7.828125 -4.28125 L 10.421875 -11.6875 L 14.921875 -11.6875 L 14.921875 -11.125 C 14.421875 -11.125 14.054688 -11.046875 13.828125 -10.890625 C 13.609375 -10.734375 13.5 -10.484375 13.5 -10.140625 L 13.5 -1.734375 C 13.5 -1.328125 13.597656 -1.035156 13.796875 -0.859375 C 14.003906 -0.679688 14.351562 -0.59375 14.84375 -0.59375 L 14.921875 -0.59375 L 14.921875 0 L 9.625 0 L 9.625 -0.59375 C 10.226562 -0.664062 10.613281 -0.773438 10.78125 -0.921875 C 10.945312 -1.078125 11.03125 -1.375 11.03125 -1.8125 L 11.03125 -10.734375 L 10.78125 -10.734375 L 7.125 0 L 6.625 0 L 3.015625 -10.734375 L 2.796875 -10.734375 L 2.796875 -2.59375 C 2.796875 -1.9375 2.929688 -1.445312 3.203125 -1.125 C 3.472656 -0.8125 3.90625 -0.632812 4.5 -0.59375 L 4.5 0 Z M 0.421875 0 "/></g></g></g><g fill="#231f20" fill-opacity="1"><g transform="translate(22.383565, 16.510067)"><g><path d="M 3.359375 -4.234375 L 6.53125 -4.234375 L 5 -8.828125 Z M 0 0 L 0 -0.53125 C 0.53125 -0.644531 0.96875 -0.863281 1.3125 -1.1875 C 1.65625 -1.507812 1.9375 -1.972656 2.15625 -2.578125 L 5.5 -11.90625 L 6.453125 -11.90625 L 9.890625 -1.796875 C 10.078125 -1.265625 10.273438 -0.921875 10.484375 -0.765625 C 10.691406 -0.609375 11 -0.53125 11.40625 -0.53125 L 11.40625 0 L 6.1875 0 L 6.1875 -0.53125 C 6.644531 -0.550781 6.96875 -0.625 7.15625 -0.75 C 7.34375 -0.875 7.4375 -1.078125 7.4375 -1.359375 C 7.4375 -1.441406 7.421875 -1.535156 7.390625 -1.640625 C 7.367188 -1.753906 7.34375 -1.863281 7.3125 -1.96875 L 6.78125 -3.515625 L 3.109375 -3.515625 L 2.734375 -2.5 C 2.671875 -2.332031 2.625 -2.164062 2.59375 -2 C 2.5625 -1.84375 2.546875 -1.703125 2.546875 -1.578125 C 2.546875 -1.265625 2.6875 -1.015625 2.96875 -0.828125 C 3.257812 -0.648438 3.671875 -0.550781 4.203125 -0.53125 L 4.203125 0 Z M 0 0 "/></g></g></g><g fill="#231f20" fill-opacity="1"><g transform="translate(39.411196, 16.510067)"><g><path d="M 0.59375 0 L 0.59375 -0.59375 C 1.15625 -0.59375 1.523438 -0.671875 1.703125 -0.828125 C 1.890625 -0.984375 1.984375 -1.316406 1.984375 -1.828125 L 1.984375 -9.984375 C 1.984375 -10.398438 1.890625 -10.691406 1.703125 -10.859375 C 1.515625 -11.035156 1.179688 -11.125 0.703125 -11.125 L 0.59375 -11.125 L 0.59375 -11.6875 L 6 -11.6875 L 6 -11.125 C 5.4375 -11.113281 5.046875 -11.023438 4.828125 -10.859375 C 4.617188 -10.703125 4.515625 -10.421875 4.515625 -10.015625 L 4.515625 -5.71875 L 8.125 -9.59375 C 8.269531 -9.757812 8.375 -9.910156 8.4375 -10.046875 C 8.507812 -10.179688 8.546875 -10.3125 8.546875 -10.4375 C 8.546875 -10.675781 8.453125 -10.847656 8.265625 -10.953125 C 8.078125 -11.066406 7.773438 -11.125 7.359375 -11.125 L 7.265625 -11.125 L 7.265625 -11.6875 L 11.953125 -11.6875 L 11.953125 -11.125 C 11.378906 -11.113281 10.851562 -10.988281 10.375 -10.75 C 9.894531 -10.507812 9.414062 -10.132812 8.9375 -9.625 L 7.359375 -7.90625 L 10.828125 -1.5625 C 10.992188 -1.238281 11.210938 -0.992188 11.484375 -0.828125 C 11.765625 -0.671875 12.09375 -0.59375 12.46875 -0.59375 L 12.515625 -0.59375 L 12.515625 0 L 7 0 L 7 -0.59375 L 7.203125 -0.59375 C 7.546875 -0.59375 7.789062 -0.632812 7.9375 -0.71875 C 8.09375 -0.8125 8.171875 -0.945312 8.171875 -1.125 C 8.171875 -1.207031 8.160156 -1.28125 8.140625 -1.34375 C 8.128906 -1.414062 8.097656 -1.5 8.046875 -1.59375 L 5.65625 -6.03125 L 4.515625 -4.875 L 4.515625 -1.953125 C 4.515625 -1.410156 4.609375 -1.046875 4.796875 -0.859375 C 4.984375 -0.679688 5.335938 -0.59375 5.859375 -0.59375 L 6 -0.59375 L 6 0 Z M 0.59375 0 "/></g></g></g><g fill="#231f20" fill-opacity="1"><g transform="translate(57.347574, 16.510067)"><g><path d="M 0.515625 0 L 0.515625 -0.5625 C 1.191406 -0.5625 1.632812 -0.640625 1.84375 -0.796875 C 2.0625 -0.960938 2.171875 -1.273438 2.171875 -1.734375 L 2.171875 -10.015625 C 2.171875 -10.441406 2.066406 -10.734375 1.859375 -10.890625 C 1.660156 -11.046875 1.253906 -11.125 0.640625 -11.125 L 0.515625 -11.125 L 0.515625 -11.6875 L 6.25 -11.6875 L 6.25 -11.125 L 6.109375 -11.125 C 5.609375 -11.125 5.25 -11.035156 5.03125 -10.859375 C 4.8125 -10.691406 4.703125 -10.410156 4.703125 -10.015625 L 4.703125 -6.234375 L 8.84375 -6.234375 L 8.84375 -10.03125 C 8.84375 -10.445312 8.738281 -10.734375 8.53125 -10.890625 C 8.320312 -11.046875 7.9375 -11.125 7.375 -11.125 L 7.296875 -11.125 L 7.296875 -11.6875 L 12.953125 -11.6875 L 12.953125 -11.125 L 12.75 -11.125 C 12.226562 -11.125 11.867188 -11.046875 11.671875 -10.890625 C 11.472656 -10.734375 11.375 -10.441406 11.375 -10.015625 L 11.375 -1.765625 C 11.375 -1.316406 11.484375 -1.003906 11.703125 -0.828125 C 11.921875 -0.648438 12.304688 -0.5625 12.859375 -0.5625 L 12.953125 -0.5625 L 12.953125 0 L 7.296875 0 L 7.296875 -0.5625 C 7.878906 -0.5625 8.28125 -0.648438 8.5 -0.828125 C 8.726562 -1.015625 8.84375 -1.34375 8.84375 -1.8125 L 8.84375 -5.53125 L 4.703125 -5.53125 L 4.703125 -1.6875 C 4.703125 -1.28125 4.804688 -0.988281 5.015625 -0.8125 C 5.234375 -0.644531 5.59375 -0.5625 6.09375 -0.5625 L 6.25 -0.5625 L 6.25 0 Z M 0.515625 0 "/></g></g></g><g fill="#231f20" fill-opacity="1"><g transform="translate(76.334937, 16.510067)"><g><path d="M 0.328125 -11.125 L 0.328125 -11.6875 L 6.09375 -11.6875 L 6.09375 -11.125 L 5.984375 -11.125 C 5.390625 -11.125 4.976562 -11.019531 4.75 -10.8125 C 4.53125 -10.613281 4.421875 -10.242188 4.421875 -9.703125 L 4.421875 -3.25 C 4.421875 -2.175781 4.625 -1.414062 5.03125 -0.96875 C 5.4375 -0.519531 6.113281 -0.296875 7.0625 -0.296875 C 7.925781 -0.296875 8.597656 -0.539062 9.078125 -1.03125 C 9.554688 -1.53125 9.796875 -2.234375 9.796875 -3.140625 L 9.796875 -9 C 9.796875 -9.675781 9.660156 -10.175781 9.390625 -10.5 C 9.128906 -10.832031 8.6875 -11.039062 8.0625 -11.125 L 8.0625 -11.6875 L 12.078125 -11.6875 L 12.078125 -11.125 C 11.535156 -11.050781 11.128906 -10.851562 10.859375 -10.53125 C 10.597656 -10.21875 10.46875 -9.773438 10.46875 -9.203125 L 10.46875 -3.71875 C 10.46875 -2.925781 10.421875 -2.34375 10.328125 -1.96875 C 10.242188 -1.59375 10.097656 -1.253906 9.890625 -0.953125 C 9.546875 -0.472656 9.109375 -0.125 8.578125 0.09375 C 8.054688 0.320312 7.398438 0.4375 6.609375 0.4375 C 5.679688 0.4375 4.875 0.320312 4.1875 0.09375 C 3.507812 -0.125 2.988281 -0.441406 2.625 -0.859375 C 2.394531 -1.117188 2.226562 -1.421875 2.125 -1.765625 C 2.019531 -2.117188 1.96875 -2.597656 1.96875 -3.203125 L 1.96875 -9.53125 C 1.96875 -10.1875 1.851562 -10.613281 1.625 -10.8125 C 1.40625 -11.007812 0.972656 -11.113281 0.328125 -11.125 Z M 0.328125 -11.125 "/></g></g></g><g fill="#231f20" fill-opacity="1"><g transform="translate(94.239706, 16.510067)"><g><path d="M 0.578125 0 L 0.578125 -0.515625 L 7.09375 -11.15625 L 5.875 -11.15625 C 4.757812 -11.15625 3.894531 -10.882812 3.28125 -10.34375 C 2.664062 -9.800781 2.160156 -8.863281 1.765625 -7.53125 L 1.25 -7.53125 L 1.40625 -11.6875 L 9.921875 -11.6875 L 9.921875 -11.28125 L 3.46875 -0.59375 L 4.640625 -0.59375 C 5.953125 -0.59375 6.976562 -0.90625 7.71875 -1.53125 C 8.46875 -2.15625 9.03125 -3.175781 9.40625 -4.59375 L 9.890625 -4.59375 L 9.703125 0 Z M 0.578125 0 "/></g></g></g><g fill="#231f20" fill-opacity="1"><g transform="translate(110.413906, 16.510067)"><g><path d="M 3.359375 -4.234375 L 6.53125 -4.234375 L 5 -8.828125 Z M 0 0 L 0 -0.53125 C 0.53125 -0.644531 0.96875 -0.863281 1.3125 -1.1875 C 1.65625 -1.507812 1.9375 -1.972656 2.15625 -2.578125 L 5.5 -11.90625 L 6.453125 -11.90625 L 9.890625 -1.796875 C 10.078125 -1.265625 10.273438 -0.921875 10.484375 -0.765625 C 10.691406 -0.609375 11 -0.53125 11.40625 -0.53125 L 11.40625 0 L 6.1875 0 L 6.1875 -0.53125 C 6.644531 -0.550781 6.96875 -0.625 7.15625 -0.75 C 7.34375 -0.875 7.4375 -1.078125 7.4375 -1.359375 C 7.4375 -1.441406 7.421875 -1.535156 7.390625 -1.640625 C 7.367188 -1.753906 7.34375 -1.863281 7.3125 -1.96875 L 6.78125 -3.515625 L 3.109375 -3.515625 L 2.734375 -2.5 C 2.671875 -2.332031 2.625 -2.164062 2.59375 -2 C 2.5625 -1.84375 2.546875 -1.703125 2.546875 -1.578125 C 2.546875 -1.265625 2.6875 -1.015625 2.96875 -0.828125 C 3.257812 -0.648438 3.671875 -0.550781 4.203125 -0.53125 L 4.203125 0 Z M 0 0 "/></g></g></g><g fill="#231f20" fill-opacity="1"><g transform="translate(127.441537, 16.510067)"><g/></g></g><g fill="#231f20" fill-opacity="1"><g transform="translate(136.962132, 16.510067)"><g><path d="M 4.765625 -6.34375 C 4.804688 -6.34375 4.851562 -6.335938 4.90625 -6.328125 C 4.957031 -6.328125 5.03125 -6.328125 5.125 -6.328125 C 5.789062 -6.328125 6.296875 -6.503906 6.640625 -6.859375 C 6.992188 -7.222656 7.234375 -7.816406 7.359375 -8.640625 L 7.875 -8.640625 L 7.875 -3.1875 L 7.359375 -3.1875 C 7.273438 -4.101562 7.039062 -4.757812 6.65625 -5.15625 C 6.269531 -5.5625 5.6875 -5.765625 4.90625 -5.765625 L 4.765625 -5.765625 L 4.765625 -1.71875 C 4.765625 -1.257812 4.851562 -0.945312 5.03125 -0.78125 C 5.21875 -0.625 5.613281 -0.546875 6.21875 -0.546875 C 7.28125 -0.546875 8.132812 -0.84375 8.78125 -1.4375 C 9.4375 -2.03125 10.015625 -3.0625 10.515625 -4.53125 L 11.125 -4.53125 L 10.921875 0 L 0.484375 0 L 0.484375 -0.546875 C 1.179688 -0.578125 1.632812 -0.675781 1.84375 -0.84375 C 2.0625 -1.019531 2.171875 -1.375 2.171875 -1.90625 L 2.171875 -9.84375 C 2.171875 -10.34375 2.0625 -10.679688 1.84375 -10.859375 C 1.625 -11.046875 1.207031 -11.140625 0.59375 -11.140625 L 0.484375 -11.140625 L 0.484375 -11.6875 L 10.640625 -11.6875 L 10.875 -7.515625 L 10.21875 -7.4375 C 9.894531 -8.71875 9.394531 -9.660156 8.71875 -10.265625 C 8.050781 -10.878906 7.160156 -11.1875 6.046875 -11.1875 C 5.609375 -11.1875 5.285156 -11.09375 5.078125 -10.90625 C 4.867188 -10.726562 4.765625 -10.445312 4.765625 -10.0625 Z M 4.765625 -6.34375 "/></g></g></g><g fill="#231f20" fill-opacity="1"><g transform="translate(154.882706, 16.510067)"><g><path d="M 0.390625 0 L 0.390625 -0.59375 C 1.054688 -0.625 1.484375 -0.710938 1.671875 -0.859375 C 1.859375 -1.003906 1.953125 -1.335938 1.953125 -1.859375 L 1.953125 -9.96875 C 1.953125 -10.414062 1.851562 -10.726562 1.65625 -10.90625 C 1.46875 -11.082031 1.109375 -11.171875 0.578125 -11.171875 L 0.390625 -11.171875 L 0.390625 -11.6875 L 5.265625 -11.6875 C 6.285156 -11.6875 7.050781 -11.632812 7.5625 -11.53125 C 8.070312 -11.4375 8.53125 -11.28125 8.9375 -11.0625 C 9.8125 -10.570312 10.503906 -9.859375 11.015625 -8.921875 C 11.535156 -7.992188 11.796875 -6.976562 11.796875 -5.875 C 11.796875 -4.769531 11.5625 -3.765625 11.09375 -2.859375 C 10.625 -1.960938 9.96875 -1.269531 9.125 -0.78125 C 8.65625 -0.5 8.125 -0.296875 7.53125 -0.171875 C 6.9375 -0.0546875 6.097656 0 5.015625 0 Z M 4.421875 -1.609375 C 4.421875 -1.171875 4.492188 -0.890625 4.640625 -0.765625 C 4.796875 -0.648438 5.175781 -0.59375 5.78125 -0.59375 C 6.988281 -0.59375 7.835938 -0.972656 8.328125 -1.734375 C 8.816406 -2.492188 9.0625 -3.832031 9.0625 -5.75 C 9.0625 -7.84375 8.804688 -9.257812 8.296875 -10 C 7.796875 -10.75 6.890625 -11.125 5.578125 -11.125 C 5.117188 -11.125 4.8125 -11.050781 4.65625 -10.90625 C 4.5 -10.757812 4.421875 -10.476562 4.421875 -10.0625 Z M 4.421875 -1.609375 "/></g></g></g><g fill="#231f20" fill-opacity="1"><g transform="translate(172.803279, 16.510067)"><g><path d="M 0.328125 -11.125 L 0.328125 -11.6875 L 6.09375 -11.6875 L 6.09375 -11.125 L 5.984375 -11.125 C 5.390625 -11.125 4.976562 -11.019531 4.75 -10.8125 C 4.53125 -10.613281 4.421875 -10.242188 4.421875 -9.703125 L 4.421875 -3.25 C 4.421875 -2.175781 4.625 -1.414062 5.03125 -0.96875 C 5.4375 -0.519531 6.113281 -0.296875 7.0625 -0.296875 C 7.925781 -0.296875 8.597656 -0.539062 9.078125 -1.03125 C 9.554688 -1.53125 9.796875 -2.234375 9.796875 -3.140625 L 9.796875 -9 C 9.796875 -9.675781 9.660156 -10.175781 9.390625 -10.5 C 9.128906 -10.832031 8.6875 -11.039062 8.0625 -11.125 L 8.0625 -11.6875 L 12.078125 -11.6875 L 12.078125 -11.125 C 11.535156 -11.050781 11.128906 -10.851562 10.859375 -10.53125 C 10.597656 -10.21875 10.46875 -9.773438 10.46875 -9.203125 L 10.46875 -3.71875 C 10.46875 -2.925781 10.421875 -2.34375 10.328125 -1.96875 C 10.242188 -1.59375 10.097656 -1.253906 9.890625 -0.953125 C 9.546875 -0.472656 9.109375 -0.125 8.578125 0.09375 C 8.054688 0.320312 7.398438 0.4375 6.609375 0.4375 C 5.679688 0.4375 4.875 0.320312 4.1875 0.09375 C 3.507812 -0.125 2.988281 -0.441406 2.625 -0.859375 C 2.394531 -1.117188 2.226562 -1.421875 2.125 -1.765625 C 2.019531 -2.117188 1.96875 -2.597656 1.96875 -3.203125 L 1.96875 -9.53125 C 1.96875 -10.1875 1.851562 -10.613281 1.625 -10.8125 C 1.40625 -11.007812 0.972656 -11.113281 0.328125 -11.125 Z M 0.328125 -11.125 "/></g></g></g><g fill="#231f20" fill-opacity="1"><g transform="translate(190.708048, 16.510067)"><g><path d="M 10 -3.78125 L 10.5625 -3.78125 C 10.539062 -2.476562 10.148438 -1.453125 9.390625 -0.703125 C 8.628906 0.046875 7.609375 0.421875 6.328125 0.421875 C 5.734375 0.421875 5.164062 0.335938 4.625 0.171875 C 4.09375 0.00390625 3.597656 -0.234375 3.140625 -0.546875 C 2.335938 -1.117188 1.710938 -1.851562 1.265625 -2.75 C 0.828125 -3.65625 0.609375 -4.648438 0.609375 -5.734375 C 0.609375 -6.546875 0.773438 -7.351562 1.109375 -8.15625 C 1.441406 -8.957031 1.894531 -9.660156 2.46875 -10.265625 C 2.988281 -10.796875 3.566406 -11.203125 4.203125 -11.484375 C 4.847656 -11.765625 5.507812 -11.90625 6.1875 -11.90625 C 6.96875 -11.90625 7.789062 -11.675781 8.65625 -11.21875 C 8.914062 -11.09375 9.078125 -11.03125 9.140625 -11.03125 C 9.222656 -11.03125 9.3125 -11.082031 9.40625 -11.1875 C 9.5 -11.289062 9.648438 -11.519531 9.859375 -11.875 L 10.421875 -11.875 L 10.5625 -7.53125 L 9.859375 -7.53125 C 9.523438 -8.820312 9.066406 -9.773438 8.484375 -10.390625 C 7.910156 -11.015625 7.191406 -11.328125 6.328125 -11.328125 C 5.335938 -11.328125 4.601562 -10.859375 4.125 -9.921875 C 3.644531 -8.984375 3.40625 -7.554688 3.40625 -5.640625 C 3.40625 -3.859375 3.660156 -2.523438 4.171875 -1.640625 C 4.691406 -0.765625 5.472656 -0.328125 6.515625 -0.328125 C 7.515625 -0.328125 8.328125 -0.640625 8.953125 -1.265625 C 9.585938 -1.890625 9.9375 -2.726562 10 -3.78125 Z M 10 -3.78125 "/></g></g></g><g fill="#231f20" fill-opacity="1"><g transform="translate(207.656658, 16.510067)"><g><path d="M 3.359375 -4.234375 L 6.53125 -4.234375 L 5 -8.828125 Z M 0 0 L 0 -0.53125 C 0.53125 -0.644531 0.96875 -0.863281 1.3125 -1.1875 C 1.65625 -1.507812 1.9375 -1.972656 2.15625 -2.578125 L 5.5 -11.90625 L 6.453125 -11.90625 L 9.890625 -1.796875 C 10.078125 -1.265625 10.273438 -0.921875 10.484375 -0.765625 C 10.691406 -0.609375 11 -0.53125 11.40625 -0.53125 L 11.40625 0 L 6.1875 0 L 6.1875 -0.53125 C 6.644531 -0.550781 6.96875 -0.625 7.15625 -0.75 C 7.34375 -0.875 7.4375 -1.078125 7.4375 -1.359375 C 7.4375 -1.441406 7.421875 -1.535156 7.390625 -1.640625 C 7.367188 -1.753906 7.34375 -1.863281 7.3125 -1.96875 L 6.78125 -3.515625 L 3.109375 -3.515625 L 2.734375 -2.5 C 2.671875 -2.332031 2.625 -2.164062 2.59375 -2 C 2.5625 -1.84375 2.546875 -1.703125 2.546875 -1.578125 C 2.546875 -1.265625 2.6875 -1.015625 2.96875 -0.828125 C 3.257812 -0.648438 3.671875 -0.550781 4.203125 -0.53125 L 4.203125 0 Z M 0 0 "/></g></g></g><g fill="#231f20" fill-opacity="1"><g transform="translate(224.684289, 16.510067)"><g><path d="M 2.203125 0 L 2.203125 -0.59375 C 2.960938 -0.632812 3.441406 -0.734375 3.640625 -0.890625 C 3.847656 -1.046875 3.953125 -1.367188 3.953125 -1.859375 L 3.953125 -11.109375 C 3.242188 -11.066406 2.632812 -10.703125 2.125 -10.015625 C 1.613281 -9.328125 1.21875 -8.34375 0.9375 -7.0625 L 0.34375 -7.0625 L 0.5 -11.6875 L 10.15625 -11.6875 L 10.328125 -7.0625 L 9.765625 -7.0625 C 9.441406 -8.445312 9.015625 -9.46875 8.484375 -10.125 C 7.960938 -10.78125 7.296875 -11.109375 6.484375 -11.109375 L 6.484375 -1.75 C 6.484375 -1.3125 6.601562 -1.007812 6.84375 -0.84375 C 7.082031 -0.6875 7.554688 -0.597656 8.265625 -0.578125 L 8.28125 0 Z M 2.203125 0 "/></g></g></g><g fill="#231f20" fill-opacity="1"><g transform="translate(240.890098, 16.510067)"><g><path d="M 0.65625 0 L 0.65625 -0.59375 C 1.207031 -0.59375 1.59375 -0.6875 1.8125 -0.875 C 2.03125 -1.070312 2.140625 -1.410156 2.140625 -1.890625 L 2.140625 -9.921875 C 2.140625 -10.335938 2.035156 -10.632812 1.828125 -10.8125 C 1.617188 -11 1.28125 -11.09375 0.8125 -11.09375 L 0.65625 -11.09375 L 0.65625 -11.6875 L 6.15625 -11.6875 L 6.15625 -11.09375 L 5.96875 -11.09375 C 5.519531 -11.09375 5.191406 -11 4.984375 -10.8125 C 4.773438 -10.625 4.671875 -10.335938 4.671875 -9.953125 L 4.671875 -1.828125 C 4.671875 -1.359375 4.765625 -1.035156 4.953125 -0.859375 C 5.140625 -0.679688 5.476562 -0.59375 5.96875 -0.59375 L 6.15625 -0.59375 L 6.15625 0 Z M 0.65625 0 "/></g></g></g><g fill="#231f20" fill-opacity="1"><g transform="translate(253.208052, 16.510067)"><g><path d="M 3.453125 -5.453125 C 3.453125 -3.679688 3.675781 -2.363281 4.125 -1.5 C 4.582031 -0.632812 5.273438 -0.203125 6.203125 -0.203125 C 6.648438 -0.203125 7.039062 -0.304688 7.375 -0.515625 C 7.71875 -0.722656 8.023438 -1.039062 8.296875 -1.46875 C 8.535156 -1.875 8.707031 -2.382812 8.8125 -3 C 8.914062 -3.613281 8.96875 -4.535156 8.96875 -5.765625 C 8.96875 -6.941406 8.914062 -7.84375 8.8125 -8.46875 C 8.707031 -9.101562 8.535156 -9.625 8.296875 -10.03125 C 8.023438 -10.457031 7.71875 -10.773438 7.375 -10.984375 C 7.039062 -11.203125 6.648438 -11.3125 6.203125 -11.3125 C 5.773438 -11.3125 5.382812 -11.203125 5.03125 -10.984375 C 4.6875 -10.773438 4.390625 -10.457031 4.140625 -10.03125 C 3.890625 -9.613281 3.710938 -9.070312 3.609375 -8.40625 C 3.503906 -7.738281 3.453125 -6.753906 3.453125 -5.453125 Z M 6.203125 0.40625 C 5.398438 0.40625 4.675781 0.257812 4.03125 -0.03125 C 3.382812 -0.320312 2.789062 -0.769531 2.25 -1.375 C 1.71875 -1.96875 1.304688 -2.640625 1.015625 -3.390625 C 0.734375 -4.140625 0.59375 -4.925781 0.59375 -5.75 C 0.59375 -6.5625 0.734375 -7.34375 1.015625 -8.09375 C 1.304688 -8.851562 1.710938 -9.519531 2.234375 -10.09375 C 2.753906 -10.675781 3.359375 -11.125 4.046875 -11.4375 C 4.742188 -11.75 5.46875 -11.90625 6.21875 -11.90625 C 6.945312 -11.90625 7.65625 -11.75 8.34375 -11.4375 C 9.03125 -11.132812 9.640625 -10.695312 10.171875 -10.125 C 10.691406 -9.550781 11.09375 -8.890625 11.375 -8.140625 C 11.65625 -7.390625 11.796875 -6.59375 11.796875 -5.75 C 11.796875 -4.9375 11.648438 -4.144531 11.359375 -3.375 C 11.078125 -2.613281 10.679688 -1.945312 10.171875 -1.375 C 9.640625 -0.789062 9.035156 -0.347656 8.359375 -0.046875 C 7.679688 0.253906 6.960938 0.40625 6.203125 0.40625 Z M 6.203125 0.40625 "/></g></g></g><g fill="#231f20" fill-opacity="1"><g transform="translate(271.128626, 16.510067)"><g><path d="M 0.265625 0 L 0.265625 -0.59375 C 0.898438 -0.625 1.359375 -0.796875 1.640625 -1.109375 C 1.929688 -1.429688 2.078125 -1.9375 2.078125 -2.625 L 2.078125 -10.015625 L 1.5 -10.640625 C 1.351562 -10.796875 1.179688 -10.910156 0.984375 -10.984375 C 0.785156 -11.066406 0.546875 -11.113281 0.265625 -11.125 L 0.265625 -11.6875 L 3.953125 -11.6875 L 9.78125 -3.953125 L 9.78125 -9.1875 C 9.78125 -9.8125 9.628906 -10.285156 9.328125 -10.609375 C 9.023438 -10.929688 8.582031 -11.101562 8 -11.125 L 8 -11.6875 L 12.171875 -11.6875 L 12.171875 -11.125 C 11.609375 -11.09375 11.175781 -10.90625 10.875 -10.5625 C 10.570312 -10.21875 10.421875 -9.742188 10.421875 -9.140625 L 10.421875 0 L 9.6875 0 L 2.671875 -9.203125 L 2.671875 -2.640625 C 2.671875 -1.929688 2.8125 -1.421875 3.09375 -1.109375 C 3.382812 -0.796875 3.867188 -0.625 4.546875 -0.59375 L 4.546875 0 Z M 0.265625 0 "/></g></g></g><g fill="#231f20" fill-opacity="1"><g transform="translate(289.096612, 16.510067)"><g><path d="M 3.359375 -4.234375 L 6.53125 -4.234375 L 5 -8.828125 Z M 0 0 L 0 -0.53125 C 0.53125 -0.644531 0.96875 -0.863281 1.3125 -1.1875 C 1.65625 -1.507812 1.9375 -1.972656 2.15625 -2.578125 L 5.5 -11.90625 L 6.453125 -11.90625 L 9.890625 -1.796875 C 10.078125 -1.265625 10.273438 -0.921875 10.484375 -0.765625 C 10.691406 -0.609375 11 -0.53125 11.40625 -0.53125 L 11.40625 0 L 6.1875 0 L 6.1875 -0.53125 C 6.644531 -0.550781 6.96875 -0.625 7.15625 -0.75 C 7.34375 -0.875 7.4375 -1.078125 7.4375 -1.359375 C 7.4375 -1.441406 7.421875 -1.535156 7.390625 -1.640625 C 7.367188 -1.753906 7.34375 -1.863281 7.3125 -1.96875 L 6.78125 -3.515625 L 3.109375 -3.515625 L 2.734375 -2.5 C 2.671875 -2.332031 2.625 -2.164062 2.59375 -2 C 2.5625 -1.84375 2.546875 -1.703125 2.546875 -1.578125 C 2.546875 -1.265625 2.6875 -1.015625 2.96875 -0.828125 C 3.257812 -0.648438 3.671875 -0.550781 4.203125 -0.53125 L 4.203125 0 Z M 0 0 "/></g></g></g><g fill="#231f20" fill-opacity="1"><g transform="translate(306.124228, 16.510067)"><g><path d="M 0.359375 0 L 0.359375 -0.59375 C 1.066406 -0.601562 1.523438 -0.6875 1.734375 -0.84375 C 1.941406 -1 2.046875 -1.328125 2.046875 -1.828125 L 2.046875 -9.640625 C 2.046875 -10.253906 1.953125 -10.65625 1.765625 -10.84375 C 1.585938 -11.03125 1.21875 -11.125 0.65625 -11.125 L 0.359375 -11.125 L 0.359375 -11.6875 L 6.328125 -11.6875 L 6.328125 -11.125 C 6.296875 -11.125 6.242188 -11.125 6.171875 -11.125 C 6.097656 -11.132812 6.039062 -11.140625 6 -11.140625 C 5.457031 -11.140625 5.082031 -11.035156 4.875 -10.828125 C 4.664062 -10.628906 4.5625 -10.265625 4.5625 -9.734375 L 4.5625 -1.96875 C 4.5625 -1.394531 4.644531 -1.019531 4.8125 -0.84375 C 4.976562 -0.675781 5.34375 -0.59375 5.90625 -0.59375 C 7.113281 -0.59375 8.046875 -0.882812 8.703125 -1.46875 C 9.367188 -2.0625 9.90625 -3.078125 10.3125 -4.515625 L 10.890625 -4.515625 L 10.71875 0 Z M 0.359375 0 "/></g></g></g><g fill="#231f20" fill-opacity="1"><g transform="translate(67.675174, 38.378103)"><g><path d="M 10 -3.78125 L 10.5625 -3.78125 C 10.539062 -2.476562 10.148438 -1.453125 9.390625 -0.703125 C 8.628906 0.046875 7.609375 0.421875 6.328125 0.421875 C 5.734375 0.421875 5.164062 0.335938 4.625 0.171875 C 4.09375 0.00390625 3.597656 -0.234375 3.140625 -0.546875 C 2.335938 -1.117188 1.710938 -1.851562 1.265625 -2.75 C 0.828125 -3.65625 0.609375 -4.648438 0.609375 -5.734375 C 0.609375 -6.546875 0.773438 -7.351562 1.109375 -8.15625 C 1.441406 -8.957031 1.894531 -9.660156 2.46875 -10.265625 C 2.988281 -10.796875 3.566406 -11.203125 4.203125 -11.484375 C 4.847656 -11.765625 5.507812 -11.90625 6.1875 -11.90625 C 6.96875 -11.90625 7.789062 -11.675781 8.65625 -11.21875 C 8.914062 -11.09375 9.078125 -11.03125 9.140625 -11.03125 C 9.222656 -11.03125 9.3125 -11.082031 9.40625 -11.1875 C 9.5 -11.289062 9.648438 -11.519531 9.859375 -11.875 L 10.421875 -11.875 L 10.5625 -7.53125 L 9.859375 -7.53125 C 9.523438 -8.820312 9.066406 -9.773438 8.484375 -10.390625 C 7.910156 -11.015625 7.191406 -11.328125 6.328125 -11.328125 C 5.335938 -11.328125 4.601562 -10.859375 4.125 -9.921875 C 3.644531 -8.984375 3.40625 -7.554688 3.40625 -5.640625 C 3.40625 -3.859375 3.660156 -2.523438 4.171875 -1.640625 C 4.691406 -0.765625 5.472656 -0.328125 6.515625 -0.328125 C 7.515625 -0.328125 8.328125 -0.640625 8.953125 -1.265625 C 9.585938 -1.890625 9.9375 -2.726562 10 -3.78125 Z M 10 -3.78125 "/></g></g></g><g fill="#231f20" fill-opacity="1"><g transform="translate(84.623784, 38.378103)"><g><path d="M 3.453125 -5.453125 C 3.453125 -3.679688 3.675781 -2.363281 4.125 -1.5 C 4.582031 -0.632812 5.273438 -0.203125 6.203125 -0.203125 C 6.648438 -0.203125 7.039062 -0.304688 7.375 -0.515625 C 7.71875 -0.722656 8.023438 -1.039062 8.296875 -1.46875 C 8.535156 -1.875 8.707031 -2.382812 8.8125 -3 C 8.914062 -3.613281 8.96875 -4.535156 8.96875 -5.765625 C 8.96875 -6.941406 8.914062 -7.84375 8.8125 -8.46875 C 8.707031 -9.101562 8.535156 -9.625 8.296875 -10.03125 C 8.023438 -10.457031 7.71875 -10.773438 7.375 -10.984375 C 7.039062 -11.203125 6.648438 -11.3125 6.203125 -11.3125 C 5.773438 -11.3125 5.382812 -11.203125 5.03125 -10.984375 C 4.6875 -10.773438 4.390625 -10.457031 4.140625 -10.03125 C 3.890625 -9.613281 3.710938 -9.070312 3.609375 -8.40625 C 3.503906 -7.738281 3.453125 -6.753906 3.453125 -5.453125 Z M 6.203125 0.40625 C 5.398438 0.40625 4.675781 0.257812 4.03125 -0.03125 C 3.382812 -0.320312 2.789062 -0.769531 2.25 -1.375 C 1.71875 -1.96875 1.304688 -2.640625 1.015625 -3.390625 C 0.734375 -4.140625 0.59375 -4.925781 0.59375 -5.75 C 0.59375 -6.5625 0.734375 -7.34375 1.015625 -8.09375 C 1.304688 -8.851562 1.710938 -9.519531 2.234375 -10.09375 C 2.753906 -10.675781 3.359375 -11.125 4.046875 -11.4375 C 4.742188 -11.75 5.46875 -11.90625 6.21875 -11.90625 C 6.945312 -11.90625 7.65625 -11.75 8.34375 -11.4375 C 9.03125 -11.132812 9.640625 -10.695312 10.171875 -10.125 C 10.691406 -9.550781 11.09375 -8.890625 11.375 -8.140625 C 11.65625 -7.390625 11.796875 -6.59375 11.796875 -5.75 C 11.796875 -4.9375 11.648438 -4.144531 11.359375 -3.375 C 11.078125 -2.613281 10.679688 -1.945312 10.171875 -1.375 C 9.640625 -0.789062 9.035156 -0.347656 8.359375 -0.046875 C 7.679688 0.253906 6.960938 0.40625 6.203125 0.40625 Z M 6.203125 0.40625 "/></g></g></g><g fill="#231f20" fill-opacity="1"><g transform="translate(102.544357, 38.378103)"><g><path d="M 0.265625 0 L 0.265625 -0.59375 C 0.898438 -0.625 1.359375 -0.796875 1.640625 -1.109375 C 1.929688 -1.429688 2.078125 -1.9375 2.078125 -2.625 L 2.078125 -10.015625 L 1.5 -10.640625 C 1.351562 -10.796875 1.179688 -10.910156 0.984375 -10.984375 C 0.785156 -11.066406 0.546875 -11.113281 0.265625 -11.125 L 0.265625 -11.6875 L 3.953125 -11.6875 L 9.78125 -3.953125 L 9.78125 -9.1875 C 9.78125 -9.8125 9.628906 -10.285156 9.328125 -10.609375 C 9.023438 -10.929688 8.582031 -11.101562 8 -11.125 L 8 -11.6875 L 12.171875 -11.6875 L 12.171875 -11.125 C 11.609375 -11.09375 11.175781 -10.90625 10.875 -10.5625 C 10.570312 -10.21875 10.421875 -9.742188 10.421875 -9.140625 L 10.421875 0 L 9.6875 0 L 2.671875 -9.203125 L 2.671875 -2.640625 C 2.671875 -1.929688 2.8125 -1.421875 3.09375 -1.109375 C 3.382812 -0.796875 3.867188 -0.625 4.546875 -0.59375 L 4.546875 0 Z M 0.265625 0 "/></g></g></g><g fill="#231f20" fill-opacity="1"><g transform="translate(120.512344, 38.378103)"><g><path d="M 0.734375 0.390625 L 0.640625 -4.1875 L 1.21875 -4.1875 C 1.644531 -2.914062 2.226562 -1.929688 2.96875 -1.234375 C 3.71875 -0.546875 4.554688 -0.203125 5.484375 -0.203125 C 6.191406 -0.203125 6.765625 -0.378906 7.203125 -0.734375 C 7.640625 -1.097656 7.859375 -1.566406 7.859375 -2.140625 C 7.859375 -2.671875 7.65625 -3.125 7.25 -3.5 C 6.851562 -3.882812 6.238281 -4.195312 5.40625 -4.4375 C 5.25 -4.476562 5.015625 -4.539062 4.703125 -4.625 C 3.203125 -5.0625 2.191406 -5.519531 1.671875 -6 C 1.304688 -6.34375 1.03125 -6.722656 0.84375 -7.140625 C 0.65625 -7.566406 0.5625 -8.023438 0.5625 -8.515625 C 0.5625 -9.484375 0.890625 -10.289062 1.546875 -10.9375 C 2.203125 -11.59375 3.015625 -11.921875 3.984375 -11.921875 C 4.585938 -11.921875 5.1875 -11.769531 5.78125 -11.46875 C 6.382812 -11.164062 6.71875 -11.015625 6.78125 -11.015625 C 6.90625 -11.015625 7.054688 -11.09375 7.234375 -11.25 C 7.421875 -11.40625 7.625 -11.625 7.84375 -11.90625 L 8.328125 -11.90625 L 8.375 -7.609375 L 7.828125 -7.609375 C 7.453125 -8.804688 6.921875 -9.722656 6.234375 -10.359375 C 5.546875 -11.003906 4.742188 -11.328125 3.828125 -11.328125 C 3.273438 -11.328125 2.800781 -11.15625 2.40625 -10.8125 C 2.007812 -10.46875 1.8125 -10.039062 1.8125 -9.53125 C 1.8125 -9.0625 2 -8.660156 2.375 -8.328125 C 2.757812 -8.003906 3.359375 -7.722656 4.171875 -7.484375 L 4.359375 -7.421875 C 6.203125 -6.898438 7.363281 -6.457031 7.84375 -6.09375 C 8.332031 -5.71875 8.695312 -5.285156 8.9375 -4.796875 C 9.1875 -4.316406 9.3125 -3.789062 9.3125 -3.21875 C 9.3125 -2.101562 8.960938 -1.210938 8.265625 -0.546875 C 7.578125 0.117188 6.648438 0.453125 5.484375 0.453125 C 5.078125 0.453125 4.695312 0.410156 4.34375 0.328125 C 3.988281 0.242188 3.5625 0.0664062 3.0625 -0.203125 C 3 -0.222656 2.914062 -0.265625 2.8125 -0.328125 C 2.613281 -0.441406 2.46875 -0.5 2.375 -0.5 C 2.238281 -0.5 2.082031 -0.425781 1.90625 -0.28125 C 1.726562 -0.144531 1.515625 0.078125 1.265625 0.390625 Z M 0.734375 0.390625 "/></g></g></g><g fill="#231f20" fill-opacity="1"><g transform="translate(135.82521, 38.378103)"><g><path d="M 0.328125 -11.125 L 0.328125 -11.6875 L 6.09375 -11.6875 L 6.09375 -11.125 L 5.984375 -11.125 C 5.390625 -11.125 4.976562 -11.019531 4.75 -10.8125 C 4.53125 -10.613281 4.421875 -10.242188 4.421875 -9.703125 L 4.421875 -3.25 C 4.421875 -2.175781 4.625 -1.414062 5.03125 -0.96875 C 5.4375 -0.519531 6.113281 -0.296875 7.0625 -0.296875 C 7.925781 -0.296875 8.597656 -0.539062 9.078125 -1.03125 C 9.554688 -1.53125 9.796875 -2.234375 9.796875 -3.140625 L 9.796875 -9 C 9.796875 -9.675781 9.660156 -10.175781 9.390625 -10.5 C 9.128906 -10.832031 8.6875 -11.039062 8.0625 -11.125 L 8.0625 -11.6875 L 12.078125 -11.6875 L 12.078125 -11.125 C 11.535156 -11.050781 11.128906 -10.851562 10.859375 -10.53125 C 10.597656 -10.21875 10.46875 -9.773438 10.46875 -9.203125 L 10.46875 -3.71875 C 10.46875 -2.925781 10.421875 -2.34375 10.328125 -1.96875 C 10.242188 -1.59375 10.097656 -1.253906 9.890625 -0.953125 C 9.546875 -0.472656 9.109375 -0.125 8.578125 0.09375 C 8.054688 0.320312 7.398438 0.4375 6.609375 0.4375 C 5.679688 0.4375 4.875 0.320312 4.1875 0.09375 C 3.507812 -0.125 2.988281 -0.441406 2.625 -0.859375 C 2.394531 -1.117188 2.226562 -1.421875 2.125 -1.765625 C 2.019531 -2.117188 1.96875 -2.597656 1.96875 -3.203125 L 1.96875 -9.53125 C 1.96875 -10.1875 1.851562 -10.613281 1.625 -10.8125 C 1.40625 -11.007812 0.972656 -11.113281 0.328125 -11.125 Z M 0.328125 -11.125 "/></g></g></g><g fill="#231f20" fill-opacity="1"><g transform="translate(153.729979, 38.378103)"><g><path d="M 0.359375 0 L 0.359375 -0.59375 C 1.066406 -0.601562 1.523438 -0.6875 1.734375 -0.84375 C 1.941406 -1 2.046875 -1.328125 2.046875 -1.828125 L 2.046875 -9.640625 C 2.046875 -10.253906 1.953125 -10.65625 1.765625 -10.84375 C 1.585938 -11.03125 1.21875 -11.125 0.65625 -11.125 L 0.359375 -11.125 L 0.359375 -11.6875 L 6.328125 -11.6875 L 6.328125 -11.125 C 6.296875 -11.125 6.242188 -11.125 6.171875 -11.125 C 6.097656 -11.132812 6.039062 -11.140625 6 -11.140625 C 5.457031 -11.140625 5.082031 -11.035156 4.875 -10.828125 C 4.664062 -10.628906 4.5625 -10.265625 4.5625 -9.734375 L 4.5625 -1.96875 C 4.5625 -1.394531 4.644531 -1.019531 4.8125 -0.84375 C 4.976562 -0.675781 5.34375 -0.59375 5.90625 -0.59375 C 7.113281 -0.59375 8.046875 -0.882812 8.703125 -1.46875 C 9.367188 -2.0625 9.90625 -3.078125 10.3125 -4.515625 L 10.890625 -4.515625 L 10.71875 0 Z M 0.359375 0 "/></g></g></g><g fill="#231f20" fill-opacity="1"><g transform="translate(170.789219, 38.378103)"><g><path d="M 2.203125 0 L 2.203125 -0.59375 C 2.960938 -0.632812 3.441406 -0.734375 3.640625 -0.890625 C 3.847656 -1.046875 3.953125 -1.367188 3.953125 -1.859375 L 3.953125 -11.109375 C 3.242188 -11.066406 2.632812 -10.703125 2.125 -10.015625 C 1.613281 -9.328125 1.21875 -8.34375 0.9375 -7.0625 L 0.34375 -7.0625 L 0.5 -11.6875 L 10.15625 -11.6875 L 10.328125 -7.0625 L 9.765625 -7.0625 C 9.441406 -8.445312 9.015625 -9.46875 8.484375 -10.125 C 7.960938 -10.78125 7.296875 -11.109375 6.484375 -11.109375 L 6.484375 -1.75 C 6.484375 -1.3125 6.601562 -1.007812 6.84375 -0.84375 C 7.082031 -0.6875 7.554688 -0.597656 8.265625 -0.578125 L 8.28125 0 Z M 2.203125 0 "/></g></g></g><g fill="#231f20" fill-opacity="1"><g transform="translate(186.995028, 38.378103)"><g><path d="M 3.359375 -4.234375 L 6.53125 -4.234375 L 5 -8.828125 Z M 0 0 L 0 -0.53125 C 0.53125 -0.644531 0.96875 -0.863281 1.3125 -1.1875 C 1.65625 -1.507812 1.9375 -1.972656 2.15625 -2.578125 L 5.5 -11.90625 L 6.453125 -11.90625 L 9.890625 -1.796875 C 10.078125 -1.265625 10.273438 -0.921875 10.484375 -0.765625 C 10.691406 -0.609375 11 -0.53125 11.40625 -0.53125 L 11.40625 0 L 6.1875 0 L 6.1875 -0.53125 C 6.644531 -0.550781 6.96875 -0.625 7.15625 -0.75 C 7.34375 -0.875 7.4375 -1.078125 7.4375 -1.359375 C 7.4375 -1.441406 7.421875 -1.535156 7.390625 -1.640625 C 7.367188 -1.753906 7.34375 -1.863281 7.3125 -1.96875 L 6.78125 -3.515625 L 3.109375 -3.515625 L 2.734375 -2.5 C 2.671875 -2.332031 2.625 -2.164062 2.59375 -2 C 2.5625 -1.84375 2.546875 -1.703125 2.546875 -1.578125 C 2.546875 -1.265625 2.6875 -1.015625 2.96875 -0.828125 C 3.257812 -0.648438 3.671875 -0.550781 4.203125 -0.53125 L 4.203125 0 Z M 0 0 "/></g></g></g><g fill="#231f20" fill-opacity="1"><g transform="translate(204.022659, 38.378103)"><g><path d="M 0.265625 0 L 0.265625 -0.59375 C 0.898438 -0.625 1.359375 -0.796875 1.640625 -1.109375 C 1.929688 -1.429688 2.078125 -1.9375 2.078125 -2.625 L 2.078125 -10.015625 L 1.5 -10.640625 C 1.351562 -10.796875 1.179688 -10.910156 0.984375 -10.984375 C 0.785156 -11.066406 0.546875 -11.113281 0.265625 -11.125 L 0.265625 -11.6875 L 3.953125 -11.6875 L 9.78125 -3.953125 L 9.78125 -9.1875 C 9.78125 -9.8125 9.628906 -10.285156 9.328125 -10.609375 C 9.023438 -10.929688 8.582031 -11.101562 8 -11.125 L 8 -11.6875 L 12.171875 -11.6875 L 12.171875 -11.125 C 11.609375 -11.09375 11.175781 -10.90625 10.875 -10.5625 C 10.570312 -10.21875 10.421875 -9.742188 10.421875 -9.140625 L 10.421875 0 L 9.6875 0 L 2.671875 -9.203125 L 2.671875 -2.640625 C 2.671875 -1.929688 2.8125 -1.421875 3.09375 -1.109375 C 3.382812 -0.796875 3.867188 -0.625 4.546875 -0.59375 L 4.546875 0 Z M 0.265625 0 "/></g></g></g><g fill="#231f20" fill-opacity="1"><g transform="translate(221.990645, 38.378103)"><g><path d="M 10 -3.78125 L 10.5625 -3.78125 C 10.539062 -2.476562 10.148438 -1.453125 9.390625 -0.703125 C 8.628906 0.046875 7.609375 0.421875 6.328125 0.421875 C 5.734375 0.421875 5.164062 0.335938 4.625 0.171875 C 4.09375 0.00390625 3.597656 -0.234375 3.140625 -0.546875 C 2.335938 -1.117188 1.710938 -1.851562 1.265625 -2.75 C 0.828125 -3.65625 0.609375 -4.648438 0.609375 -5.734375 C 0.609375 -6.546875 0.773438 -7.351562 1.109375 -8.15625 C 1.441406 -8.957031 1.894531 -9.660156 2.46875 -10.265625 C 2.988281 -10.796875 3.566406 -11.203125 4.203125 -11.484375 C 4.847656 -11.765625 5.507812 -11.90625 6.1875 -11.90625 C 6.96875 -11.90625 7.789062 -11.675781 8.65625 -11.21875 C 8.914062 -11.09375 9.078125 -11.03125 9.140625 -11.03125 C 9.222656 -11.03125 9.3125 -11.082031 9.40625 -11.1875 C 9.5 -11.289062 9.648438 -11.519531 9.859375 -11.875 L 10.421875 -11.875 L 10.5625 -7.53125 L 9.859375 -7.53125 C 9.523438 -8.820312 9.066406 -9.773438 8.484375 -10.390625 C 7.910156 -11.015625 7.191406 -11.328125 6.328125 -11.328125 C 5.335938 -11.328125 4.601562 -10.859375 4.125 -9.921875 C 3.644531 -8.984375 3.40625 -7.554688 3.40625 -5.640625 C 3.40625 -3.859375 3.660156 -2.523438 4.171875 -1.640625 C 4.691406 -0.765625 5.472656 -0.328125 6.515625 -0.328125 C 7.515625 -0.328125 8.328125 -0.640625 8.953125 -1.265625 C 9.585938 -1.890625 9.9375 -2.726562 10 -3.78125 Z M 10 -3.78125 "/></g></g></g><g fill="#231f20" fill-opacity="1"><g transform="translate(238.939255, 38.378103)"><g><path d="M 3.0625 0 L 3.0625 -0.578125 C 3.875 -0.628906 4.375 -0.722656 4.5625 -0.859375 C 4.75 -0.992188 4.84375 -1.269531 4.84375 -1.6875 L 4.84375 -5.28125 L 2.046875 -10.15625 C 1.847656 -10.488281 1.613281 -10.734375 1.34375 -10.890625 C 1.070312 -11.054688 0.734375 -11.15625 0.328125 -11.1875 L 0.328125 -11.6875 L 5.984375 -11.6875 L 5.984375 -11.1875 L 5.953125 -11.1875 C 5.078125 -11.132812 4.640625 -10.957031 4.640625 -10.65625 C 4.640625 -10.59375 4.648438 -10.53125 4.671875 -10.46875 C 4.703125 -10.40625 4.753906 -10.320312 4.828125 -10.21875 L 7.09375 -6.40625 L 8.8125 -9.359375 C 8.832031 -9.398438 8.867188 -9.457031 8.921875 -9.53125 C 9.097656 -9.832031 9.1875 -10.082031 9.1875 -10.28125 C 9.1875 -10.570312 9.054688 -10.789062 8.796875 -10.9375 C 8.535156 -11.082031 8.117188 -11.164062 7.546875 -11.1875 L 7.546875 -11.6875 L 12.046875 -11.6875 L 12.046875 -11.1875 C 11.578125 -11.132812 11.160156 -11.003906 10.796875 -10.796875 C 10.429688 -10.597656 10.144531 -10.332031 9.9375 -10 L 7.359375 -5.734375 L 7.359375 -1.71875 C 7.359375 -1.269531 7.46875 -0.972656 7.6875 -0.828125 C 7.90625 -0.679688 8.347656 -0.597656 9.015625 -0.578125 L 9.015625 0 Z M 3.0625 0 "/></g></g></g></g></g></svg>